<svg width="200" height="200" viewBox="0 0 200 200" fill="none" xmlns="http://www.w3.org/2000/svg">
  <!-- Garuda Pancasila inspired logo -->
  <defs>
    <linearGradient id="grad1" x1="0%" y1="0%" x2="100%" y2="100%">
      <stop offset="0%" style="stop-color:#FF0000;stop-opacity:1" />
      <stop offset="50%" style="stop-color:#FFD700;stop-opacity:1" />
      <stop offset="100%" style="stop-color:#FF0000;stop-opacity:1" />
    </linearGradient>
  </defs>
  
  <!-- Wings -->
  <path d="M50 100 Q30 80 10 70 Q20 60 40 65 Q60 75 80 85 Q100 95 120 100 Q100 105 80 115 Q60 125 40 135 Q20 140 10 130 Q30 120 50 100Z" fill="url(#grad1)" opacity="0.8"/>
  <path d="M150 100 Q170 80 190 70 Q180 60 160 65 Q140 75 120 85 Q100 95 80 100 Q100 105 120 115 Q140 125 160 135 Q180 140 190 130 Q170 120 150 100Z" fill="url(#grad1)" opacity="0.8"/>
  
  <!-- Body -->
  <ellipse cx="100" cy="100" rx="25" ry="40" fill="#FFD700"/>
  
  <!-- Head -->
  <circle cx="100" cy="70" r="15" fill="#FF0000"/>
  
  <!-- Tail -->
  <path d="M100 140 Q80 160 60 170 Q70 180 90 175 Q100 170 100 140Z" fill="url(#grad1)"/>
  <path d="M100 140 Q120 160 140 170 Q130 180 110 175 Q100 170 100 140Z" fill="url(#grad1)"/>
  
  <!-- Details -->
  <circle cx="95" cy="65" r="2" fill="white"/>
  <circle cx="105" cy="65" r="2" fill="white"/>
  <path d="M100 75 Q95 80 100 82 Q105 80 100 75Z" fill="white"/>
</svg>
