<?xml version="1.0" encoding="UTF-8"?>
<svg version="1.1" xmlns="http://www.w3.org/2000/svg" width="1024" height="1024">
<path d="M0 0 C337.92 0 675.84 0 1024 0 C1024 337.92 1024 675.84 1024 1024 C686.08 1024 348.16 1024 0 1024 C0 686.08 0 348.16 0 0 Z " fill="#FAFAFA" transform="translate(0,0)"/>
<path d="M0 0 C4.15945149 3.50081859 8.09349071 7.22148175 12 11 C12.82242188 11.78246094 13.64484375 12.56492188 14.4921875 13.37109375 C19.85829316 18.57487949 19.85829316 18.57487949 21 22 C19.69289063 22.23783203 19.69289063 22.23783203 18.359375 22.48046875 C-2.59905681 26.58596243 -16.87475694 37.51565707 -32 52 C-32.99 51.175 -33.98 50.35 -35 49.5 C-39.10470403 46.42147198 -43.43521664 44.05779864 -48 41.75 C-48.66386719 41.40904297 -49.32773437 41.06808594 -50.01171875 40.71679688 C-62.21789006 34.68565329 -77.66427699 33.54755652 -90.6875 37.6875 C-92.47825946 38.41083622 -94.25200718 39.17868653 -96 40 C-96.78246094 40.350625 -97.56492187 40.70125 -98.37109375 41.0625 C-112.24661173 47.98823514 -121.9948717 60.5202557 -127.03515625 74.9453125 C-131.85013276 90.18948914 -130.91429198 105.62234573 -124.5625 120.328125 C-116.3311051 135.44539833 -103.5018898 146.7621988 -87 152 C-69.87708702 156.52360644 -52.33312115 151.99732835 -37.1706543 143.99853516 C-29.45099351 140.02356186 -21.40814406 138.01016104 -13 136 C-11.58170898 135.65654541 -11.58170898 135.65654541 -10.13476562 135.30615234 C-5.97079602 134.29876202 -1.80573403 133.29670506 2.36401367 132.31347656 C10.83747762 130.31118764 19.25664783 128.13242647 27.65307617 125.82836914 C28.54615479 125.58852295 29.4392334 125.34867676 30.359375 125.1015625 C31.13764648 124.88838379 31.91591797 124.67520508 32.71777344 124.45556641 C35.19647987 123.96077969 37.4788085 123.92145647 40 124 C32.36392269 149.02333857 20.50484741 167.95532019 4.07421875 188.1796875 C0.76219453 192.26831695 -2.43737823 196.43902631 -5.625 200.625 C-6.44339355 201.69959473 -6.44339355 201.69959473 -7.27832031 202.79589844 C-8.34844242 204.20192177 -9.41827376 205.60816645 -10.48779297 207.01464844 C-12.71133935 209.93390565 -14.94824333 212.84278576 -17.1875 215.75 C-17.98542969 216.78640625 -18.78335938 217.8228125 -19.60546875 218.890625 C-20.79076172 220.42976563 -20.79076172 220.42976563 -22 222 C-23.66695292 224.16644651 -25.33347413 226.33322497 -27 228.5 C-27.83332547 229.58333938 -28.6666588 230.66667272 -29.5 231.75 C-29.9125 232.28625 -30.325 232.8225 -30.75 233.375 C-32 235 -33.25 236.625 -34.5 238.25 C-34.91266113 238.78657227 -35.32532227 239.32314453 -35.75048828 239.87597656 C-36.5817534 240.95639383 -37.41345742 242.03647356 -38.24560547 243.11621094 C-40.36435663 245.8665209 -42.47454542 248.62275065 -44.5703125 251.390625 C-60.78672791 272.7593719 -60.78672791 272.7593719 -71.04296875 274.30859375 C-77.88480232 274.71985151 -81.76874795 272.20065766 -87 268 C-89.52836482 265.46834347 -91.73950088 262.75746569 -93.9375 259.9375 C-94.83734619 258.81432373 -94.83734619 258.81432373 -95.75537109 257.66845703 C-97.51933249 255.45749339 -99.26367693 253.232709 -101 251 C-101.46583496 250.40171387 -101.93166992 249.80342773 -102.41162109 249.18701172 C-104.46189904 246.54427576 -106.49472861 243.88886417 -108.51953125 241.2265625 C-111.22361928 237.6856762 -114.01686848 234.21875445 -116.8125 230.75 C-121.08948259 225.44016869 -125.25874813 220.06019611 -129.375 214.625 C-133.85086719 208.72186892 -138.454719 202.9491133 -143.1875 197.25 C-148.52671826 190.81812149 -153.74368218 184.3279415 -158.76269531 177.64208984 C-160.0789005 175.89528714 -161.4108118 174.16104174 -162.7421875 172.42578125 C-183.97861722 144.47129221 -194.39420153 112.44084004 -190.69970703 77.12988281 C-189.08695276 65.83443953 -185.88872583 55.31173863 -181 45 C-180.6896582 44.32904297 -180.37931641 43.65808594 -180.05957031 42.96679688 C-174.58699748 31.30854201 -167.5664666 21.58305678 -159 12 C-158.154375 11.05253906 -157.30875 10.10507813 -156.4375 9.12890625 C-150.03139242 2.37509875 -142.71558737 -2.86712356 -135 -8 C-134.14535156 -8.5775 -133.29070312 -9.155 -132.41015625 -9.75 C-92.04584044 -35.54017849 -36.77741446 -28.75409453 0 0 Z " fill="#007CFE" transform="translate(578,225)"/>
<path d="M0 0 C2.74200153 5.48400305 0.80754733 11.26670205 -1 16.75 C-7.34969379 33.41572291 -19.77447788 48.23598161 -36 56 C-47.75126831 61.09250551 -60.30680092 63.62138136 -72.73809814 66.4765625 C-77.6600686 67.60787147 -82.57729533 68.75915864 -87.49484253 69.90951538 C-89.93550419 70.48035825 -92.37635969 71.05037299 -94.81741333 71.61953735 C-103.78295543 73.71018502 -112.74378316 75.81718982 -121.6819458 78.02230835 C-123.54341756 78.4799433 -125.40716372 78.92829688 -127.27099609 79.3762207 C-139.4973954 82.41214702 -150.93044909 85.93044909 -160 95 C-160.6425235 97.06874034 -160.6425235 97.06874034 -161 99 C-160.2939563 98.83966278 -159.5879126 98.67932556 -158.86047363 98.51412964 C-136.35692504 93.40822809 -113.83371556 88.39252121 -91.30273438 83.40917969 C-86.40390441 82.32550602 -81.5057718 81.23871143 -76.6077652 80.15132332 C-72.78712968 79.30372043 -68.96598581 78.45842742 -65.1446991 77.61376572 C-63.33608193 77.21356204 -61.52765694 76.81248879 -59.71943665 76.41049576 C-57.21258328 75.85339728 -54.70502245 75.29959727 -52.19726562 74.74658203 C-51.46697144 74.58351059 -50.73667725 74.42043915 -49.98425293 74.25242615 C-45.66610423 73.30449902 -41.37945444 72.57290779 -37 72 C-35.7518238 84.53723652 -41.66654604 95.16784903 -49 105 C-61.87851849 120.24445844 -79.09735604 125.3710101 -97.83990479 129.59509277 C-101.98258271 130.53019221 -106.11817641 131.49564513 -110.25390625 132.4609375 C-111.55439911 132.7639679 -111.55439911 132.7639679 -112.88116455 133.07312012 C-124.92738125 135.8974992 -136.90001707 139.01381513 -148.87963867 142.10595703 C-150.14962456 142.43371628 -150.14962456 142.43371628 -151.44526672 142.76809692 C-153.1203233 143.20072723 -154.7952022 143.63404608 -156.46989441 144.06808472 C-160.80221986 145.18808515 -165.13890381 146.28559237 -169.48486328 147.3515625 C-170.38506195 147.57305969 -171.28526062 147.79455688 -172.21273804 148.02276611 C-173.9221656 148.4420169 -175.63242231 148.85790776 -177.34365845 149.26971436 C-185.76791308 151.33741734 -193.34041565 154.58982465 -201 158.625 C-214.21358753 165.23179377 -230.75082237 166.41560976 -245 162.4375 C-261.6753317 156.30968925 -274.05116183 144.7907221 -282 129 C-288.79234909 111.83149333 -288.32165384 95.9971474 -281.78515625 78.8046875 C-275.00642736 63.75394451 -262.24777697 52.85311049 -247 47 C-233.0108338 42.17382204 -217.20434426 44.19477969 -204.046875 50.390625 C-198.27642026 53.38621626 -193.05288951 56.91714945 -188 61 C-187.113125 60.05125 -186.22625 59.1025 -185.3125 58.125 C-170.26763633 43.11052999 -153.52697403 34.06387661 -132.625 30.4375 C-112.52345242 26.78048839 -92.76470102 21.70483652 -72.95501709 16.73937988 C-69.00224715 15.75035055 -65.04774316 14.76836529 -61.09313965 13.78669739 C-39.63268039 8.4931408 -39.63268039 8.4931408 -18.23828125 2.94140625 C-17.14499512 2.64919189 -16.05170898 2.35697754 -14.92529297 2.0559082 C-13.01453253 1.54051188 -11.10576604 1.01762774 -9.19970703 0.48510742 C-3.32478618 -1.10826206 -3.32478618 -1.10826206 0 0 Z " fill="#FE9323" transform="translate(734,215)"/>
<path d="M0 0 C11.60913361 9.12271284 19.73300928 20.14803274 22 35 C22.80121226 46.19054282 22.46782265 56.55173764 18 67 C17.59910156 67.94101562 17.19820312 68.88203125 16.78515625 69.8515625 C9.62442137 84.58814733 -2.67113089 92.59551612 -17.61328125 97.93359375 C-32.44775163 101.64861656 -49.6660334 99.61558443 -62.75 91.875 C-76.17922194 82.53379121 -84.39485324 70.52841919 -87.56640625 54.35546875 C-89.65300975 38.2077894 -86.80629884 23.46821684 -76.9609375 10.265625 C-57.92056165 -11.93693341 -24.14294047 -17.85861659 0 0 Z " fill="#017AFE" transform="translate(827,588)"/>
<path d="M0 0 C8.96079175 7.4605687 13.98446189 16.19406188 16.77734375 27.40625 C16.94153809 28.05271484 17.10573242 28.69917969 17.27490234 29.36523438 C18.82097542 36.46366621 18.33984375 42.3879351 18.33984375 50.03125 C-8.06015625 50.03125 -34.46015625 50.03125 -61.66015625 50.03125 C-58.27562192 62.8776877 -58.27562192 62.8776877 -49.63671875 71.30078125 C-41.05844244 75.81314593 -31.15103442 76.64669628 -21.78515625 73.90625 C-18.67224447 72.69554779 -16.94414755 71.38546318 -14.7109375 68.9375 C-9.71874838 64.53427701 -4.03737529 65.37623403 2.27734375 65.65625 C4.01854492 65.69685547 4.01854492 65.69685547 5.79492188 65.73828125 C8.6451665 65.80865766 11.49152094 65.90706376 14.33984375 66.03125 C10.76823739 77.71861917 2.77756451 86.74486343 -7.828125 92.67578125 C-21.02315299 98.99119465 -37.24593885 100.75616477 -51.34765625 96.34375 C-53.13841571 95.62041378 -54.91216343 94.85256347 -56.66015625 94.03125 C-57.44261719 93.680625 -58.22507812 93.33 -59.03125 92.96875 C-72.12062458 86.43540532 -80.90822304 75.27985996 -85.59765625 61.59375 C-90.21425054 46.67873811 -88.85322079 30.07270614 -82.53515625 15.90625 C-75.32365481 2.47644791 -63.70612296 -5.04481474 -49.66015625 -9.96875 C-32.74562334 -14.48118411 -13.81485563 -10.22421034 0 0 Z " fill="#0179FE" transform="translate(662.66015625,588.96875)"/>
<path d="M0 0 C8.63594324 6.59859044 13.12782779 15.17255358 15.21875 25.6953125 C15.38188559 28.22765048 15.45461179 30.76711558 15.44580078 33.3046875 C15.44609283 34.01786636 15.44638489 34.73104523 15.44668579 35.46583557 C15.44530701 37.79245739 15.42981542 40.11874754 15.4140625 42.4453125 C15.41032719 44.07055486 15.40748267 45.69579949 15.40548706 47.32104492 C15.39789137 51.57564635 15.3782783 55.83010882 15.3560791 60.08465576 C15.33553261 64.43532431 15.3264666 68.78601555 15.31640625 73.13671875 C15.29502813 81.65632053 15.25987964 90.17578316 15.21875 98.6953125 C7.29875 98.6953125 -0.62125 98.6953125 -8.78125 98.6953125 C-8.78125 94.0753125 -8.78125 89.4553125 -8.78125 84.6953125 C-9.44125 85.3759375 -10.10125 86.0565625 -10.78125 86.7578125 C-11.77921566 87.73905248 -12.77947043 88.71796658 -13.78125 89.6953125 C-14.63589844 90.5615625 -14.63589844 90.5615625 -15.5078125 91.4453125 C-24.15255638 99.69873052 -33.18673758 101.27790915 -44.78125 101.17260742 C-56.54174437 100.7564416 -66.0474886 96.26745588 -74.16796875 87.71484375 C-79.84940392 80.60273241 -80.63783321 72.37975285 -80.2265625 63.546875 C-79.40439182 56.43581983 -76.73039182 51.21647403 -71.53125 46.3203125 C-54.76523896 33.50137534 -29.62842439 36.51531162 -9.78125 36.6953125 C-11.30748614 25.42895465 -11.30748614 25.42895465 -17.78125 16.6953125 C-24.44070234 12.684154 -32.70372495 12.61623386 -40.15234375 14.19921875 C-44.7479465 15.71950321 -47.71976424 18.00352085 -50.78125 21.6953125 C-51.44125 23.0153125 -52.10125 24.3353125 -52.78125 25.6953125 C-60.37125 25.6953125 -67.96125 25.6953125 -75.78125 25.6953125 C-75.78125 15.93783392 -72.26811352 9.52424728 -65.66015625 2.4453125 C-48.70815034 -13.34366598 -18.45657024 -11.92486194 0 0 Z " fill="#017AFE" transform="translate(438.78125,586.3046875)"/>
<path d="M0 0 C3.46897005 2.25014273 6.43596134 4.77408475 9.45703125 7.59375 C8.87397817 11.52024806 6.95393642 13.64349116 4.45703125 16.65625 C0.72049787 21.55368168 -2.18048717 26.41735821 -4.78515625 31.9921875 C-5.35978104 33.21548012 -5.35978104 33.21548012 -5.9460144 34.46348572 C-10.83456045 45.10994196 -14.72030349 56.13575494 -18.66796875 67.15625 C-19.43398837 69.27832259 -20.20091266 71.40006882 -20.96875 73.52148438 C-21.34521667 74.56170746 -21.72168335 75.60193054 -22.10955811 76.67367554 C-23.5698246 80.69910112 -25.03893093 84.72127237 -26.50939941 88.74298096 C-27.51646647 91.52065196 -28.49885314 94.30617236 -29.47949219 97.09326172 C-30.08036127 98.74874258 -30.6821898 100.40387565 -31.28515625 102.05859375 C-31.54297882 102.81475479 -31.80080139 103.57091583 -32.06643677 104.34999084 C-32.83544922 106.41772461 -32.83544922 106.41772461 -34.54296875 109.59375 C-40.5583619 111.98907501 -46.8373868 108.81187512 -52.54296875 106.59375 C-67.39588652 99.66238837 -78.9259303 87.26388863 -84.95703125 72.01953125 C-90.43130348 54.74997462 -89.45903749 39.0108403 -81.98046875 22.40625 C-74.09368753 7.61104777 -60.93136404 -2.13232834 -45.3046875 -7.5234375 C-29.52596051 -11.22644093 -13.87433569 -7.96301551 0 0 Z " fill="#F9FAFA" transform="translate(535.54296875,268.40625)"/>
<path d="M0 0 C34.65 0 69.3 0 105 0 C105 8.25 105 16.5 105 25 C92.13 25 79.26 25 66 25 C66 62.62 66 100.24 66 139 C57.42 139 48.84 139 40 139 C40 101.38 40 63.76 40 25 C26.8 25 13.6 25 0 25 C0 16.75 0 8.5 0 0 Z " fill="#017AFE" transform="translate(184,546)"/>
<path d="M0 0 C8.91 0 17.82 0 27 0 C29.78232896 7.71153613 32.56446287 15.42314254 35.34627056 23.13486671 C36.63852588 26.71723215 37.93086061 30.2995689 39.22338867 33.88183594 C40.47499291 37.35069155 41.72637309 40.81962792 42.97760963 44.28861618 C43.45067475 45.60004828 43.92381532 46.91145317 44.39703941 48.22282791 C47.61565918 57.14231496 50.81584159 66.06816446 54 75 C54.66 75 55.32 75 56 75 C56.30494888 74.16579025 56.30494888 74.16579025 56.61605835 73.31472778 C74.73534842 23.75934842 74.73534842 23.75934842 84 0 C92.58 0 101.16 0 110 0 C109.32493076 3.3753462 108.73577516 5.98678121 107.53564453 9.10449219 C107.23598785 9.88869034 106.93633118 10.67288849 106.62759399 11.48085022 C106.2993161 12.3276384 105.97103821 13.17442657 105.6328125 14.046875 C105.1124794 15.40304176 105.1124794 15.40304176 104.58163452 16.78660583 C103.43341249 19.7759556 102.2793414 22.76300844 101.125 25.75 C100.32330738 27.83233794 99.52187912 29.91477768 98.72070312 31.99731445 C96.59375591 37.52197239 94.46108418 43.04440294 92.32678223 48.56622314 C90.98972878 52.02658242 89.65431115 55.48756895 88.31933594 58.94873047 C86.13586899 64.60903472 83.9497351 70.26830098 81.76116943 75.92663574 C80.92203406 78.09629389 80.08336844 80.26613377 79.24517822 82.43615723 C78.07175868 85.47256224 76.89567253 88.50792008 75.71875 91.54296875 C75.3705722 92.44502548 75.02239441 93.34708221 74.66366577 94.276474 C74.34088654 95.10715897 74.0181073 95.93784393 73.68554688 96.79370117 C73.40674683 97.51353683 73.12794678 98.2333725 72.84069824 98.97502136 C71.98934044 101.02567554 70.99297459 103.01405082 70 105 C60.1 105 50.2 105 40 105 C38.93265625 102.21046875 37.8653125 99.4209375 36.765625 96.546875 C35.26060929 92.61450959 33.75529416 88.68225883 32.25 84.75 C31.85538574 83.71900177 31.46077148 82.68800354 31.05419922 81.62576294 C26.18916162 68.91629234 21.31435491 56.21065287 16.421875 43.51171875 C15.96685608 42.33032318 15.51183716 41.14892761 15.04302979 39.93173218 C12.82237251 34.16639804 10.60027977 28.4016238 8.37597656 22.63769531 C7.56309611 20.52801596 6.75026792 18.41831646 5.9375 16.30859375 C5.56743835 15.35119797 5.19737671 14.39380219 4.81610107 13.40739441 C4.47331116 12.51683853 4.13052124 11.62628265 3.77734375 10.70874023 C3.33249634 9.55570656 3.33249634 9.55570656 2.87866211 8.37937927 C1.85557178 5.60889459 0.9339325 2.8017975 0 0 Z " fill="#0179FE" transform="translate(462,580)"/>
<path d="M0 0 C8.25 0 16.5 0 25 0 C25 47.52 25 95.04 25 144 C16.75 144 8.5 144 0 144 C0 96.48 0 48.96 0 0 Z " fill="#007DFE" transform="translate(698,541)"/>
<path d="M0 0 C0 8.58 0 17.16 0 26 C-2.76375 26.061875 -5.5275 26.12375 -8.375 26.1875 C-15.66871332 26.53039483 -22.24054643 27.04550943 -28 32 C-35.87386383 41.47841172 -36.2983409 52.32273081 -36.4140625 64.12890625 C-36.43342865 65.35915024 -36.4527948 66.58939423 -36.4727478 67.85691833 C-36.53218602 71.75870994 -36.57878583 75.66053161 -36.625 79.5625 C-36.66216838 82.21943202 -36.7022662 84.87630986 -36.7421875 87.53320312 C-36.83942935 94.0220707 -36.91928355 100.51082195 -37 107 C-45.25 107 -53.5 107 -62 107 C-62 72.35 -62 37.7 -62 2 C-54.41 2 -46.82 2 -39 2 C-39 7.61 -39 13.22 -39 19 C-36.6979832 16.6979832 -34.98214714 14.67756395 -33.125 12.0625 C-24.43969165 0.41095612 -14.10745123 0 0 0 Z " fill="#007CFE" transform="translate(352,578)"/>
<path d="M0 0 C7.09244782 4.7959665 11.1650727 10.66019846 13 19 C14.01627506 30.71029219 13.55431147 40.68057085 7.25 50.8125 C0.90860124 56.97774879 -6.42041288 60.27992825 -15.3125 60.3125 C-24.94106089 60.10484659 -31.00147508 57.9341388 -38.05078125 51.25390625 C-44.74008604 43.51897866 -45.56080367 33.79437813 -45.33984375 23.93359375 C-44.61973856 15.59858313 -41.34676866 7.97964782 -34.9921875 2.40234375 C-25.1206577 -4.54643899 -10.77636133 -5.85536396 0 0 Z " fill="#F8FAFA" transform="translate(810,604)"/>
<path d="M0 0 C6.40480288 4.12786608 10.61363511 9.75199615 12.703125 17.09765625 C12.703125 18.74765625 12.703125 20.39765625 12.703125 22.09765625 C-5.116875 22.09765625 -22.936875 22.09765625 -41.296875 22.09765625 C-40.05412622 14.64116358 -37.1217719 8.27195995 -31.359375 3.16015625 C-22.36639563 -2.89634006 -10.22220952 -4.77777184 0 0 Z " fill="#F8FAFA" transform="translate(642.296875,600.90234375)"/>
<path d="M0 0 C0.56123444 7.576665 -0.9639716 13.89559705 -5.54296875 20.0859375 C-11.1677929 26.18700534 -16.70309331 28.05783234 -24.86669922 28.3996582 C-32.99175014 28.54378534 -38.62282724 27.69323952 -45 22.3125 C-46.6236381 18.55783688 -46.61144618 15.0139643 -46 11 C-43.55523404 5.99934236 -39.49730108 4.66822483 -34.53515625 2.796875 C-30.41457154 1.50165269 -26.43818396 0.87732178 -22.12890625 0.68359375 C-20.77249023 0.62075195 -20.77249023 0.62075195 -19.38867188 0.55664062 C-17.9897168 0.49766602 -17.9897168 0.49766602 -16.5625 0.4375 C-15.63373047 0.39431641 -14.70496094 0.35113281 -13.74804688 0.30664062 C-9.16160421 0.10098519 -4.59234626 -0.05366682 0 0 Z " fill="#F7F9FA" transform="translate(429,639)"/>
<path d="M0 0 C8.25 0 16.5 0 25 0 C25 47.52 25 95.04 25 144 C16.75 144 8.5 144 0 144 C0 96.48 0 48.96 0 0 Z M2 2 C2 48.2 2 94.4 2 142 C8.93 142 15.86 142 23 142 C23 95.8 23 49.6 23 2 C16.07 2 9.14 2 2 2 Z " fill="#1775FD" transform="translate(698,541)"/>
<path d="M0 0 C3.98561154 2.62688033 6.23980531 5.28191592 7.75 9.8125 C8.14614654 15.06144167 7.61557317 18.36592094 4.75 22.8125 C0.09485454 27.01348493 -2.78035959 28.1668609 -8.9296875 28.09765625 C-13.27355695 27.56381371 -16.00442138 25.16212456 -18.88671875 22.0390625 C-21.52235225 17.73444618 -20.83600733 12.67636088 -20.25 7.8125 C-16.10852627 -0.93061121 -8.84831692 -3.23303888 0 0 Z " fill="#31475A" transform="translate(380.25,738.1875)"/>
<path d="M0 0 C3.83779422 2.52945528 6.19800415 4.55158551 7.3203125 9.1484375 C8.08085671 14.53697411 8.02388264 18.22906431 4.75 22.8125 C0.32701355 26.90376246 -3.1105105 28.18311749 -9.1875 28.09375 C-12.63132092 27.62413806 -14.65999592 26.04110816 -17.25 23.8125 C-21.13197784 18.42034939 -21.19119364 13.25270464 -20.25 6.8125 C-18.66200162 3.5167732 -16.34177854 1.64074579 -13.4375 -0.5625 C-8.63065912 -1.93588311 -4.6064147 -1.68311307 0 0 Z " fill="#1B2B3E" transform="translate(255.25,738.1875)"/>
<path d="M0 0 C3.15077002 2.61063801 4.98710487 4.90045614 5.42651367 9.09301758 C5.48257067 11.77639765 5.44894549 14.44210578 5.375 17.125 C5.35469727 18.52202148 5.35469727 18.52202148 5.33398438 19.94726562 C5.29876882 22.23627646 5.24952099 24.52408458 5.1875 26.8125 C3.5375 26.8125 1.8875 26.8125 0.1875 26.8125 C-0.1425 26.1525 -0.4725 25.4925 -0.8125 24.8125 C-1.3075 25.3075 -1.8025 25.8025 -2.3125 26.3125 C-5.76091976 28.38155186 -8.93281556 28.39753178 -12.8125 27.8125 C-17.38194444 25.67361111 -17.38194444 25.67361111 -18.8125 22.8125 C-19.3926105 16.54730663 -19.3926105 16.54730663 -16.9375 13.4375 C-13.20615576 10.58411911 -10.85900695 10.70420091 -6.1875 10.75 C-4.99898437 10.75902344 -3.81046875 10.76804687 -2.5859375 10.77734375 C-1.67070313 10.78894531 -0.75546875 10.80054688 0.1875 10.8125 C-0.90034968 7.56266865 -0.90034968 7.56266865 -2.8125 4.8125 C-4.49858966 4.74044489 -6.18750659 4.72863932 -7.875 4.75 C-8.79410156 4.75902344 -9.71320312 4.76804687 -10.66015625 4.77734375 C-11.37042969 4.78894531 -12.08070313 4.80054688 -12.8125 4.8125 C-12.8125 5.4725 -12.8125 6.1325 -12.8125 6.8125 C-14.7925 6.8125 -16.7725 6.8125 -18.8125 6.8125 C-17.52239008 3.93456249 -16.23888194 1.85066083 -13.8125 -0.1875 C-9.00385086 -1.79038305 -4.64178589 -1.95986515 0 0 Z " fill="#132439" transform="translate(621.8125,738.1875)"/>
<path d="M0 0 C3.10352458 1.60923497 5.21701424 3.00347267 7.375 5.75 C8 8 8 8 8 16 C1.4 16 -5.2 16 -12 16 C-10.45957252 20.80304035 -10.45957252 20.80304035 -8 23 C-6.08993694 23.3176246 -6.08993694 23.3176246 -4 23.25 C-3.29875 23.25515625 -2.5975 23.2603125 -1.875 23.265625 C0.2435669 23.15705515 0.2435669 23.15705515 2 21 C5.125 20.875 5.125 20.875 8 21 C5.93145393 25.02822129 4.21285902 27.2212373 0 29 C-4.86611237 29.54067915 -6.97338536 29.54236245 -11.3125 27.25 C-15.32016334 23.89474697 -17.33368512 21.39051749 -17.875 16.125 C-18.19603226 11.57704292 -17.71508528 8.80111939 -15 5 C-10.17500788 0.64573882 -6.54391193 -0.88792857 0 0 Z " fill="#203041" transform="translate(494,737)"/>
<path d="M0 0 C4.81956963 1.60652321 6.89767978 3.73619766 9.3359375 7.98828125 C10 10 10 10 10 16 C3.07 16 -3.86 16 -11 16 C-9.45957252 20.80304035 -9.45957252 20.80304035 -7 23 C-5.08993694 23.3176246 -5.08993694 23.3176246 -3 23.25 C-2.29875 23.25515625 -1.5975 23.2603125 -0.875 23.265625 C1.2435669 23.15705515 1.2435669 23.15705515 3 21 C6.125 20.875 6.125 20.875 9 21 C6.80210057 25.51790439 4.72061191 27.27516103 0 29 C-4.28359614 29.53544952 -6.40228336 29.31035287 -10.25 27.3125 C-13.9176732 24.22832026 -15.75132822 22.28985268 -16.28125 17.41015625 C-16.58617449 7.94479194 -16.58617449 7.94479194 -13 4 C-8.62835158 0.3238411 -5.68416123 -0.71052015 0 0 Z " fill="#2F4253" transform="translate(768,737)"/>
<path d="M0 0 C1.65 0 3.3 0 5 0 C5 5.61 5 11.22 5 17 C10.94 17 16.88 17 23 17 C23 11.39 23 5.78 23 0 C24.65 0 26.3 0 28 0 C28 12.54 28 25.08 28 38 C26.35 38 24.7 38 23 38 C23 32.72 23 27.44 23 22 C17.06 22 11.12 22 5 22 C5 27.28 5 32.56 5 38 C3.35 38 1.7 38 0 38 C0 25.46 0 12.92 0 0 Z " fill="#415B6D" transform="translate(717,727)"/>
<path d="M0 0 C2.67686585 1.74307544 4.16446907 2.95777663 5.6875 5.75 C5.6875 7.07 5.6875 8.39 5.6875 9.75 C4.0375 9.75 2.3875 9.75 0.6875 9.75 C0.39875 9.110625 0.11 8.47125 -0.1875 7.8125 C-1.14073451 5.59793921 -1.14073451 5.59793921 -3.3125 4.75 C-9.19415736 4.28411718 -9.19415736 4.28411718 -14.3125 6.75 C-14.36417527 9.17267086 -14.36417527 9.17267086 -13.3125 11.75 C-10.22710044 13.42125809 -7.34540001 14.45141378 -3.98828125 15.421875 C-0.27550673 16.52650213 2.2680807 17.39195914 5.25 19.9375 C7.16120123 23.67680675 7.50421304 26.63309955 6.6875 30.75 C4.79831515 34.09240397 3.39371021 35.41294513 -0.0625 37.0625 C-5.28286394 38.16680776 -9.45499037 38.35726276 -14.5625 36.6875 C-18.221056 34.109881 -19.40551021 31.78401686 -21.3125 27.75 C-21.3125 27.09 -21.3125 26.43 -21.3125 25.75 C-18.5 25.4375 -18.5 25.4375 -15.3125 25.75 C-13.5 28.1875 -13.5 28.1875 -12.3125 30.75 C-10.73289731 32.32960269 -9.11713184 31.91986544 -6.9375 31.9375 C-6.14601563 31.95167969 -5.35453125 31.96585938 -4.5390625 31.98046875 C-2.02518667 31.89507509 -2.02518667 31.89507509 0.6875 29.75 C0.9377157 26.66634129 0.9377157 26.66634129 0.6875 23.75 C-0.42625 23.3375 -1.54 22.925 -2.6875 22.5 C-3.41066406 22.22414063 -4.13382813 21.94828125 -4.87890625 21.6640625 C-6.56537451 21.03062177 -8.26164245 20.42290231 -9.96484375 19.8359375 C-16.69213465 17.40581479 -16.69213465 17.40581479 -19.5 14.4375 C-20.61891911 10.73645988 -20.37428422 8.46624478 -19.3125 4.75 C-14.00142058 -1.67920141 -7.68948355 -2.9016919 0 0 Z " fill="#1B2B3F" transform="translate(570.3125,728.25)"/>
<path d="M0 0 C-2.87603277 1.520661 -5.73429742 2.58762149 -8.8125 3.625 C-15.48536105 6.25280811 -19.2302667 10.85380746 -22.6875 17 C-23.3371875 17.99 -23.3371875 17.99 -24 19 C-25.32 19 -26.64 19 -28 19 C-28 13.72 -28 8.44 -28 3 C-34.6 3 -41.2 3 -48 3 C-48 36.33 -48 69.66 -48 104 C-40.74 104 -33.48 104 -26 104 C-26 85.85 -26 67.7 -26 49 C-25.67 49 -25.34 49 -25 49 C-25 67.81 -25 86.62 -25 106 C-33.25 106 -41.5 106 -50 106 C-50 71.35 -50 36.7 -50 1 C-42.41 1 -34.82 1 -27 1 C-27 6.61 -27 12.22 -27 18 C-24.6979832 15.6979832 -22.98214714 13.67756395 -21.125 11.0625 C-15.78949643 3.90479742 -9.26972886 -0.67827284 0 0 Z " fill="#0061FE" transform="translate(340,579)"/>
<path d="M0 0 C1.98 0 3.96 0 6 0 C8.31 5.94 10.62 11.88 13 18 C15.8601731 15.1398269 16.77745477 11.60815162 18.125 7.875 C18.40214844 7.12089844 18.67929687 6.36679687 18.96484375 5.58984375 C19.64817 3.72836879 20.32473389 1.86441398 21 0 C22.98 0 24.96 0 27 0 C25.65516981 3.70097269 24.30400078 7.39956583 22.94726562 11.09619141 C22.26366936 12.96267728 21.58490953 14.83093221 20.90625 16.69921875 C15.0338507 32.6755992 15.0338507 32.6755992 11.25 37 C7.7904521 38.53757684 4.76273637 38.18813682 1 38 C1.33 36.35 1.66 34.7 2 33 C4.31 32.34 6.62 31.68 9 31 C10.26597015 26.69236871 9.69651376 24.4024835 7.91015625 20.33203125 C7.22856445 18.74551758 7.22856445 18.74551758 6.53320312 17.12695312 C6.04787109 16.03318359 5.56253906 14.93941406 5.0625 13.8125 C4.11306395 11.63273719 3.1663062 9.45180518 2.22265625 7.26953125 C1.58469116 5.82477417 1.58469116 5.82477417 0.93383789 4.35083008 C0 2 0 2 0 0 Z " fill="#283D50" transform="translate(505,738)"/>
<path d="M0 0 C4.22652987 1.82509245 6.11454518 3.83158707 8 8 C8.36083174 11.44634896 8.28287063 14.852258 8.1875 18.3125 C8.16719727 19.70952148 8.16719727 19.70952148 8.14648438 21.13476562 C8.11126882 23.42377646 8.06202099 25.71158458 8 28 C6.35 28 4.7 28 3 28 C2.93941406 26.73542969 2.87882812 25.47085938 2.81640625 24.16796875 C2.73199096 22.50780129 2.64734345 20.84764563 2.5625 19.1875 C2.52318359 18.35412109 2.48386719 17.52074219 2.44335938 16.66210938 C2.40146484 15.85966797 2.35957031 15.05722656 2.31640625 14.23046875 C2.27974854 13.49207764 2.24309082 12.75368652 2.20532227 11.99291992 C2.05157859 9.792505 2.05157859 9.792505 1 7 C-2.01868434 5.49065783 -4.67297229 5.82489328 -8 6 C-11.16903363 7.60672068 -11.16903363 7.60672068 -11.43237305 10.06298828 C-11.45855713 10.89040527 -11.48474121 11.71782227 -11.51171875 12.5703125 C-11.54716797 13.46621094 -11.58261719 14.36210938 -11.61914062 15.28515625 C-11.64169922 16.22230469 -11.66425781 17.15945313 -11.6875 18.125 C-11.72166016 19.06988281 -11.75582031 20.01476562 -11.79101562 20.98828125 C-11.87364112 23.32540253 -11.94273988 25.66214191 -12 28 C-13.65 28 -15.3 28 -17 28 C-17 19.09 -17 10.18 -17 1 C-15.68 1 -14.36 1 -13 1 C-12.67 1.99 -12.34 2.98 -12 4 C-11.319375 3.34 -10.63875 2.68 -9.9375 2 C-6.26383061 -0.50122172 -4.36916255 -0.54614532 0 0 Z " fill="#18293C" transform="translate(463,737)"/>
<path d="M0 0 C1.65 0 3.3 0 5 0 C5.01981934 0.55985596 5.03963867 1.11971191 5.06005859 1.6965332 C5.15537783 4.23565854 5.26502753 6.77396888 5.375 9.3125 C5.4059375 10.19357422 5.436875 11.07464844 5.46875 11.98242188 C5.50742187 12.82998047 5.54609375 13.67753906 5.5859375 14.55078125 C5.6173584 15.33106689 5.6487793 16.11135254 5.68115234 16.9152832 C5.89587889 19.30155768 5.89587889 19.30155768 8 22 C13.13299673 22.73050089 13.13299673 22.73050089 17.59130859 20.75317383 C19.35064293 18.56361059 19.41828721 17.33504127 19.51171875 14.55078125 C19.54716797 13.70322266 19.58261719 12.85566406 19.61914062 11.98242188 C19.64169922 11.10134766 19.66425781 10.22027344 19.6875 9.3125 C19.72166016 8.41982422 19.75582031 7.52714844 19.79101562 6.60742188 C19.87345648 4.40507329 19.94261551 2.20312062 20 0 C21.65 0 23.3 0 25 0 C25 8.91 25 17.82 25 27 C23.68 27 22.36 27 21 27 C21 26.01 21 25.02 21 24 C19.989375 24.66 18.97875 25.32 17.9375 26 C14.12534715 28.14433598 11.41196257 28.72195751 7 28 C4.05340783 26.32474648 1.49511712 24.42049928 0.34204102 21.11230469 C-0.02383871 18.85278193 -0.11312096 16.7419014 -0.09765625 14.453125 C-0.09443359 13.60878906 -0.09121094 12.76445313 -0.08789062 11.89453125 C-0.07951172 11.02183594 -0.07113281 10.14914062 -0.0625 9.25 C-0.05798828 8.36183594 -0.05347656 7.47367188 -0.04882812 6.55859375 C-0.037074 4.37232671 -0.02064249 2.18619821 0 0 Z " fill="#192A3D" transform="translate(393,738)"/>
<path d="M0 0 C3.49890004 2.11391877 4.70578686 3.11736059 6 7 C3.125 7.125 3.125 7.125 0 7 C-0.66 6.34 -1.32 5.68 -2 5 C-5.58343976 4.83322718 -5.58343976 4.83322718 -9 5 C-8.67 6.65 -8.34 8.3 -8 10 C-7.32453125 10.18175781 -6.6490625 10.36351562 -5.953125 10.55078125 C-5.06109375 10.80214844 -4.1690625 11.05351563 -3.25 11.3125 C-2.36828125 11.55613281 -1.4865625 11.79976562 -0.578125 12.05078125 C2.13035285 13.04799355 3.92151 13.99778486 6 16 C6.86769518 22.83309958 6.86769518 22.83309958 4.1875 26.4375 C0.21798098 29.27287073 -3.23090223 29.40416083 -8 29 C-13.56701031 26.11340206 -13.56701031 26.11340206 -14.875 22.75 C-14.91625 22.1725 -14.9575 21.595 -15 21 C-12.625 20.875 -12.625 20.875 -10 21 C-9.34 21.66 -8.68 22.32 -8 23 C-5.31160615 23.26991906 -2.70858064 23.08737357 0 23 C0.33 21.68 0.66 20.36 1 19 C0.40832031 18.81824219 -0.18335938 18.63648438 -0.79296875 18.44921875 C-10.70334928 15.29665072 -10.70334928 15.29665072 -14 12 C-14.69826373 4.90098545 -14.69826373 4.90098545 -12.0625 1.5 C-7.93434191 -0.52195498 -4.51614531 -0.82632369 0 0 Z " fill="#1B2D40" transform="translate(690,737)"/>
<path d="M0 0 C1.65 0 3.3 0 5 0 C5.01981934 0.55985596 5.03963867 1.11971191 5.06005859 1.6965332 C5.15537783 4.23565854 5.26502753 6.77396888 5.375 9.3125 C5.4059375 10.19357422 5.436875 11.07464844 5.46875 11.98242188 C5.50742187 12.82998047 5.54609375 13.67753906 5.5859375 14.55078125 C5.6173584 15.33106689 5.6487793 16.11135254 5.68115234 16.9152832 C5.89587889 19.30155768 5.89587889 19.30155768 8 22 C12.07210885 22.53073253 12.07210885 22.53073253 16 22 C18.11582572 20.20782799 18.88419687 18.71731915 19.32543945 15.98413086 C19.51988894 13.5704597 19.62131396 11.17051817 19.6875 8.75 C19.72166016 7.90953125 19.75582031 7.0690625 19.79101562 6.203125 C19.87323568 4.13587796 19.93830157 2.06796126 20 0 C21.32 0 22.64 0 24 0 C24 8.91 24 17.82 24 27 C22.68 27 21.36 27 20 27 C19.67 26.34 19.34 25.68 19 25 C18.319375 25.495 17.63875 25.99 16.9375 26.5 C13.23381194 28.39124497 11.11607555 28.57769481 7 28 C3.52758281 25.97248124 1.29720262 23.89160785 0 20 C-0.08106686 18.44578271 -0.10756898 16.88832973 -0.09765625 15.33203125 C-0.09443359 14.43935547 -0.09121094 13.54667969 -0.08789062 12.62695312 C-0.07951172 11.69818359 -0.07113281 10.76941406 -0.0625 9.8125 C-0.05798828 8.87212891 -0.05347656 7.93175781 -0.04882812 6.96289062 C-0.03704626 4.64186288 -0.02059558 2.32096356 0 0 Z " fill="#203446" transform="translate(268,738)"/>
<path d="M0 0 C2.3046875 -0.29296875 2.3046875 -0.29296875 5 0 C6.6953125 2.01171875 6.6953125 2.01171875 8.125 4.6875 C8.84042969 5.99267578 8.84042969 5.99267578 9.5703125 7.32421875 C10.04210937 8.20722656 10.51390625 9.09023438 11 10 C11.55429688 10.89332031 12.10859375 11.78664063 12.6796875 12.70703125 C14 15 14 15 14 17 C14.66 17 15.32 17 16 17 C16.26683594 16.29359375 16.53367188 15.5871875 16.80859375 14.859375 C18.05482596 11.86841769 19.50135246 9.08845007 21.0625 6.25 C21.58972656 5.28578125 22.11695313 4.3215625 22.66015625 3.328125 C24 1 24 1 25 0 C26.66617115 -0.04063832 28.33388095 -0.042721 30 0 C28.7550659 2.54425853 27.50426112 5.08534361 26.25 7.625 C25.90195313 8.33785156 25.55390625 9.05070313 25.1953125 9.78515625 C23.55707484 13.09196931 21.9707582 16.03995006 19.78125 19.03125 C17.61157059 22.64738236 17.33758989 25.76623805 17.25 29.875 C17.20552734 30.90753906 17.20552734 30.90753906 17.16015625 31.9609375 C17.09019464 33.64001626 17.04274789 35.32000812 17 37 C15.35 37 13.7 37 12 37 C12.05542969 36.06542969 12.11085937 35.13085938 12.16796875 34.16796875 C12.22845831 21.84019616 7.73066511 13.85169724 0.99389648 3.71728516 C0 2 0 2 0 0 Z " fill="#24384B" transform="translate(206,728)"/>
<path d="M0 0 C6.05761794 -0.41776675 9.19025097 -0.12264203 14 4 C17.05225296 7.88468558 16 10.51616537 16 16 C9.07 16 2.14 16 -5 16 C-2.83333333 21.83333333 -2.83333333 21.83333333 0 23 C1.91403076 23.19668734 1.91403076 23.19668734 4 23.1875 C5.051875 23.20876953 5.051875 23.20876953 6.125 23.23046875 C8.24524938 23.16512323 8.24524938 23.16512323 10 21 C13.125 20.875 13.125 20.875 16 21 C14.60415208 24.37329915 13.07634389 26.04232662 10 28 C5.34022851 29.55325716 1.49847493 29.47010978 -3.1875 28 C-7.00127775 25.28798027 -8.56065461 22.40748701 -10 18 C-10.74050243 11.8644084 -9.14392325 8.02098277 -5.625 3.0625 C-4 2 -4 2 -1.5625 2.25 C-0.2940625 2.62125 -0.2940625 2.62125 1 3 C1.763125 3.185625 2.52625 3.37125 3.3125 3.5625 C3.869375 3.706875 4.42625 3.85125 5 4 C3.27473958 4.5859375 1.54947917 5.171875 -0.17578125 5.7578125 C-2.87835136 7.59810649 -3.70779296 10.06569602 -5 13 C-3.80761719 12.97679687 -2.61523438 12.95359375 -1.38671875 12.9296875 C0.17968124 12.91092822 1.746088 12.89272819 3.3125 12.875 C4.09818359 12.85824219 4.88386719 12.84148438 5.69335938 12.82421875 C6.45068359 12.81777344 7.20800781 12.81132813 7.98828125 12.8046875 C8.68477783 12.79421387 9.38127441 12.78374023 10.09887695 12.77294922 C12 13 12 13 15 15 C14.57630928 13.3713449 14.1355377 11.74712622 13.6875 10.125 C13.44386719 9.22007812 13.20023438 8.31515625 12.94921875 7.3828125 C12.13330148 4.67886681 12.13330148 4.67886681 9 3 C6.49103314 2.54398739 6.49103314 2.54398739 3.8125 2.375 C2.91144531 2.30023437 2.01039063 2.22546875 1.08203125 2.1484375 C0.39496094 2.09945312 -0.29210937 2.05046875 -1 2 C-0.67 1.34 -0.34 0.68 0 0 Z " fill="#1E3143" transform="translate(810,737)"/>
<path d="M0 0 C1.65 0 3.3 0 5 0 C5.12415248 4.44733299 5.21459457 8.8937326 5.2746582 13.34228516 C5.29971095 14.85353174 5.33376377 16.36465824 5.37719727 17.87548828 C5.4382669 20.05531501 5.46629916 22.23353262 5.48828125 24.4140625 C5.51446533 25.7232666 5.54064941 27.0324707 5.56762695 28.38134766 C4.82194958 33.13508101 3.41596803 34.67223256 0 38 C-5.28923464 39.76307821 -9.38689444 39.74680813 -14.375 37.4375 C-17.55743081 34.48238568 -18.1904763 32.20952323 -19 28 C-16.1875 27.6875 -16.1875 27.6875 -13 28 C-12.525625 28.825 -12.05125 29.65 -11.5625 30.5 C-11.046875 31.325 -10.53125 32.15 -10 33 C-6.45769191 33.58342353 -6.45769191 33.58342353 -3 33 C-0.13454405 30.13454405 -0.68370372 28.03185244 -0.5859375 24.0234375 C-0.56657135 23.33819 -0.5472052 22.6529425 -0.5272522 21.94692993 C-0.46743169 19.75641356 -0.42106244 17.5658447 -0.375 15.375 C-0.33682237 13.89060198 -0.29777076 12.40622616 -0.2578125 10.921875 C-0.16172916 7.28145315 -0.07770718 3.64086564 0 0 Z " fill="#435C6F" transform="translate(348,727)"/>
<path d="M0 0 C2.5 1.3125 2.5 1.3125 4 4 C4.70990477 8.87320046 4.9187748 13.28229058 2.5625 17.6875 C-1.29988847 19.66579653 -4.76004432 19.87133034 -9 19 C-11.84510981 16.84881942 -12.74884291 15.33547953 -13.40625 11.83984375 C-13.68688961 7.6372656 -13.34084408 5.52191749 -11 1.9375 C-6.83994881 -0.74919973 -4.89701312 -0.6995733 0 0 Z " fill="#F8F9FA" transform="translate(253,742)"/>
<path d="M0 0 C2.5 1.3125 2.5 1.3125 4 4 C4.60179712 7.77699333 4.65260464 11.22748722 4 15 C1.35068232 18.45214122 -0.2384253 18.87760407 -4.5 19.5625 C-8 19 -8 19 -10.9375 17.0625 C-13.34576589 13.48659004 -13.74519692 11.39468302 -13.4765625 7.16015625 C-11.85289389 -0.19958752 -6.35310679 -0.90758668 0 0 Z " fill="#F9FAFA" transform="translate(378,742)"/>
<path d="M0 0 C0 2.64 0 5.28 0 8 C2.31 8 4.62 8 7 8 C7 9.32 7 10.64 7 12 C4.69 12 2.38 12 0 12 C0.33 17.61 0.66 23.22 1 29 C2.98 29.66 4.96 30.32 7 31 C7.875 33.125 7.875 33.125 8 35 C6.39667209 35.08121924 4.79215974 35.13929134 3.1875 35.1875 C1.84751953 35.23970703 1.84751953 35.23970703 0.48046875 35.29296875 C-2 35 -2 35 -3.63671875 33.7734375 C-5.39828772 31.4818836 -5.34774816 30.19882058 -5.29296875 27.33203125 C-5.28330078 26.43935547 -5.27363281 25.54667969 -5.26367188 24.62695312 C-5.23853516 23.69818359 -5.21339844 22.76941406 -5.1875 21.8125 C-5.17396484 20.87212891 -5.16042969 19.93175781 -5.14648438 18.96289062 C-5.11113096 16.64134962 -5.06178674 14.32096347 -5 12 C-6.65 12 -8.3 12 -10 12 C-10 10.68 -10 9.36 -10 8 C-8.35 8 -6.7 8 -5 8 C-5.061875 7.05125 -5.12375 6.1025 -5.1875 5.125 C-5.125625 4.09375 -5.06375 3.0625 -5 2 C-2 0 -2 0 0 0 Z " fill="#203548" transform="translate(591,730)"/>
<path d="M0 0 C1.32 0 2.64 0 4 0 C4 2.31 4 4.62 4 7 C6.31 7 8.62 7 11 7 C11 8.32 11 9.64 11 11 C8.69 11 6.38 11 4 11 C4.33 16.61 4.66 22.22 5 28 C6.98 28.66 8.96 29.32 11 30 C11.875 32.125 11.875 32.125 12 34 C10.3973218 34.10824843 8.79254252 34.18570645 7.1875 34.25 C6.29417969 34.29640625 5.40085937 34.3428125 4.48046875 34.390625 C2 34 2 34 0.1875 32.59375 C-1.66320187 28.5514275 -1.31379143 24.63457932 -1.1875 20.25 C-1.17396484 19.36183594 -1.16042969 18.47367188 -1.14648438 17.55859375 C-1.11121309 15.37177422 -1.06192752 13.18620034 -1 11 C-2.65 11 -4.3 11 -6 11 C-6 9.68 -6 8.36 -6 7 C-4.35 7 -2.7 7 -1 7 C-1.020625 6.030625 -1.04125 5.06125 -1.0625 4.0625 C-1 1 -1 1 0 0 Z " fill="#132538" transform="translate(659,731)"/>
<path d="M0 0 C1.65 0 3.3 0 5 0 C5 12.54 5 25.08 5 38 C3.35 38 1.7 38 0 38 C0 32.39 0 26.78 0 21 C-5.94 21 -11.88 21 -18 21 C-18 20.67 -18 20.34 -18 20 C-11.73 20 -5.46 20 1 20 C1 19.34 1 18.68 1 18 C-5.27 18 -11.54 18 -18 18 C-18 17.67 -18 17.34 -18 17 C-12.06 17 -6.12 17 0 17 C0 11.39 0 5.78 0 0 Z " fill="#1D2F41" transform="translate(740,727)"/>
<path d="M0 0 C3.71550591 2.70218612 4.29020452 6.71101203 5 11 C5.16313559 13.53233798 5.23586179 16.07180308 5.22705078 18.609375 C5.22734283 19.32255386 5.22763489 20.03573273 5.22793579 20.77052307 C5.22655701 23.09714489 5.21106542 25.42343504 5.1953125 27.75 C5.19157719 29.37524236 5.18873267 31.00048699 5.18673706 32.62573242 C5.17914137 36.88033385 5.1595283 41.13479632 5.1373291 45.38934326 C5.11678261 49.74001181 5.1077166 54.09070305 5.09765625 58.44140625 C5.07627813 66.96100803 5.04112964 75.48047066 5 84 C-2.92 84 -10.84 84 -19 84 C-19 80.04 -19 76.08 -19 72 C-18.67 72 -18.34 72 -18 72 C-17.67 75.3 -17.34 78.6 -17 82 C-10.4 82 -3.8 82 3 82 C2.9142602 72.63728341 2.82038785 63.27474307 2.71247292 53.91225529 C2.66267495 49.56417551 2.61634439 45.21611811 2.578125 40.86791992 C2.54106258 36.66621943 2.4946478 32.46471396 2.44193649 28.26318169 C2.42350326 26.66578046 2.40835513 25.06833761 2.39665604 23.47087288 C2.33568684 15.42858871 2.20513566 7.8030853 0 0 Z " fill="#0A6DFD" transform="translate(449,601)"/>
<path d="M0 0 C3.15077002 2.61063801 4.98710487 4.90045614 5.42651367 9.09301758 C5.48257067 11.77639765 5.44894549 14.44210578 5.375 17.125 C5.35469727 18.52202148 5.35469727 18.52202148 5.33398438 19.94726562 C5.29876882 22.23627646 5.24952099 24.52408458 5.1875 26.8125 C3.5375 26.8125 1.8875 26.8125 0.1875 26.8125 C-0.9375 22.0625 -0.9375 22.0625 0.1875 19.8125 C0.1875 18.719375 0.1875 17.62625 0.1875 16.5 C0.1875 13.38542332 0.45880758 10.81835622 1.1875 7.8125 C-1.95841933 5.01204377 -3.879564 4.45988411 -8.0625 4.625 C-8.95453125 4.65207031 -9.8465625 4.67914062 -10.765625 4.70703125 C-11.77882813 4.75923828 -11.77882813 4.75923828 -12.8125 4.8125 C-12.8125 5.4725 -12.8125 6.1325 -12.8125 6.8125 C-14.7925 6.8125 -16.7725 6.8125 -18.8125 6.8125 C-17.52239008 3.93456249 -16.23888194 1.85066083 -13.8125 -0.1875 C-9.00385086 -1.79038305 -4.64178589 -1.95986515 0 0 Z " fill="#24394D" transform="translate(621.8125,738.1875)"/>
<path d="M0 0 C10.74590164 0.18852459 10.74590164 0.18852459 15.1875 3.0625 C17 6 17 6 18 14 C12.06 14 6.12 14 0 14 C-0.66 12.68 -1.32 11.36 -2 10 C-0.42536072 6.51921843 0.78882551 5.14078299 4 3 C2.68 2.67 1.36 2.34 0 2 C0 1.34 0 0.68 0 0 Z " fill="#445A6B" transform="translate(807,738)"/>
<path d="M0 0 C0 1.65 0 3.3 0 5 C-1.670625 5.4021875 -1.670625 5.4021875 -3.375 5.8125 C-7.21840951 6.65809019 -7.21840951 6.65809019 -9 10 C-9.36351504 12.02542148 -9.36351504 12.02542148 -9.4140625 14.23046875 C-9.45273437 15.03291016 -9.49140625 15.83535156 -9.53125 16.66210938 C-9.5621875 17.49548828 -9.593125 18.32886719 -9.625 19.1875 C-9.66367187 20.03248047 -9.70234375 20.87746094 -9.7421875 21.74804688 C-9.83636279 23.83167524 -9.91926675 25.91580753 -10 28 C-11.65 28 -13.3 28 -15 28 C-15 19.09 -15 10.18 -15 1 C-13.35 1 -11.7 1 -10 1 C-9.67 1.66 -9.34 2.32 -9 3 C-8.443125 2.505 -7.88625 2.01 -7.3125 1.5 C-4.61837017 -0.24754367 -3.14624993 -0.26218749 0 0 Z " fill="#1C2F42" transform="translate(649,737)"/>
<path d="M0 0 C0 1.65 0 3.3 0 5 C-1.134375 5.28875 -2.26875 5.5775 -3.4375 5.875 C-4.613125 6.24625 -5.78875 6.6175 -7 7 C-8.14654482 9.29308963 -8.19729117 10.79909656 -8.31640625 13.3515625 C-8.35830078 14.20234375 -8.40019531 15.053125 -8.44335938 15.9296875 C-8.48267578 16.81914063 -8.52199219 17.70859375 -8.5625 18.625 C-8.62727539 19.97078125 -8.62727539 19.97078125 -8.69335938 21.34375 C-8.79956861 23.56234283 -8.90161194 25.7810488 -9 28 C-10.65 28 -12.3 28 -14 28 C-14 19.09 -14 10.18 -14 1 C-12.68 1 -11.36 1 -10 1 C-9.67 1.99 -9.34 2.98 -9 4 C-8.54625 3.525625 -8.0925 3.05125 -7.625 2.5625 C-4.88310805 -0.07393457 -4.00762691 0 0 0 Z " fill="#15293C" transform="translate(313,737)"/>
<path d="M0 0 C0 1.65 0 3.3 0 5 C-1.134375 5.309375 -2.26875 5.61875 -3.4375 5.9375 C-6.78775099 6.62924531 -6.78775099 6.62924531 -8 8 C-8.15655027 9.48638992 -8.25066943 10.97949127 -8.31640625 12.47265625 C-8.35830078 13.37177734 -8.40019531 14.27089844 -8.44335938 15.19726562 C-8.50233398 16.61555664 -8.50233398 16.61555664 -8.5625 18.0625 C-8.62727539 19.4865918 -8.62727539 19.4865918 -8.69335938 20.93945312 C-8.79979276 23.29281353 -8.90181008 25.64628354 -9 28 C-10.65 28 -12.3 28 -14 28 C-14 19.09 -14 10.18 -14 1 C-12.68 1 -11.36 1 -10 1 C-9.67 1.99 -9.34 2.98 -9 4 C-8.2575 3.34 -7.515 2.68 -6.75 2 C-4 0 -4 0 0 0 Z " fill="#26394B" transform="translate(440,737)"/>
<path d="M0 0 C3.10352458 1.60923497 5.21701424 3.00347267 7.375 5.75 C8 8 8 8 8 16 C1.4 16 -5.2 16 -12 16 C-12 15.67 -12 15.34 -12 15 C-5.73 15 0.54 15 7 15 C6.67 13.02 6.34 11.04 6 9 C5.67 10.65 5.34 12.3 5 14 C-0.61 14 -6.22 14 -12 14 C-12 13.67 -12 13.34 -12 13 C-6.72 13 -1.44 13 4 13 C2.34922098 9.24829576 2.34922098 9.24829576 0 6 C-5.6047709 5.78673597 -5.6047709 5.78673597 -11 7 C-12.22520264 10.00847418 -12.22520264 10.00847418 -13 13 C-14.27382218 9.17853346 -13.97333827 6.89335307 -13 3 C-9.29571133 -0.47978633 -4.87927286 -0.8689116 0 0 Z " fill="#1C2E43" transform="translate(494,737)"/>
<path d="M0 0 C0 0.33 0 0.66 0 1 C-0.69867188 1.10957031 -1.39734375 1.21914063 -2.1171875 1.33203125 C-3.02726562 1.49058594 -3.93734375 1.64914062 -4.875 1.8125 C-5.77992188 1.96332031 -6.68484375 2.11414063 -7.6171875 2.26953125 C-10.34412478 2.83051301 -10.34412478 2.83051301 -12 6 C-12.67432203 10.25763793 -12.70447403 13.84466258 -10.4375 17.5625 C-7.0574374 19.55587025 -4.86710904 19.47490813 -1 19 C1.87146994 17.63002843 1.87146994 17.63002843 4 16 C4.33 16.99 4.66 17.98 5 19 C7.21934455 15.67098317 7.27129898 14.51206363 7.25 10.625 C7.25515625 9.68914063 7.2603125 8.75328125 7.265625 7.7890625 C6.98635261 4.85670238 6.22149016 2.66595075 5 0 C8.59669595 3.36465105 9.8715157 5.29758297 10.25 10.3125 C9.88716594 15.66430237 8.41893949 18.71949363 4.4375 22.3125 C-0.02737747 25.40356902 -3.64790222 25.6634091 -9 25 C-12.5625 23.1875 -12.5625 23.1875 -15 21 C-15 20.01 -15 19.02 -15 18 C-14.2575 18.66 -13.515 19.32 -12.75 20 C-10.02757055 22.39211447 -10.02757055 22.39211447 -6 22 C-6.928125 21.62875 -7.85625 21.2575 -8.8125 20.875 C-12.62296092 18.6335524 -13.54296274 17.12827223 -15 13 C-15.58459269 8.99136443 -15.18692372 7.34714406 -13.25 3.75 C-9.00657338 -1.43641031 -6.50601401 -1.25115654 0 0 Z " fill="#1C2E41" transform="translate(378,741)"/>
<path d="M0 0 C0.7425 0.0825 1.485 0.165 2.25 0.25 C2.25 1.9 2.25 3.55 2.25 5.25 C0.579375 5.6521875 0.579375 5.6521875 -1.125 6.0625 C-4.96840951 6.90809019 -4.96840951 6.90809019 -6.75 10.25 C-7.11351504 12.27542148 -7.11351504 12.27542148 -7.1640625 14.48046875 C-7.20273437 15.28291016 -7.24140625 16.08535156 -7.28125 16.91210938 C-7.3121875 17.74548828 -7.343125 18.57886719 -7.375 19.4375 C-7.41367187 20.28248047 -7.45234375 21.12746094 -7.4921875 21.99804688 C-7.58636279 24.08167524 -7.66926675 26.16580753 -7.75 28.25 C-9.07 28.25 -10.39 28.25 -11.75 28.25 C-11.75 19.34 -11.75 10.43 -11.75 1.25 C-10.43 1.25 -9.11 1.25 -7.75 1.25 C-7.42 2.24 -7.09 3.23 -6.75 4.25 C-6.193125 3.59 -5.63625 2.93 -5.0625 2.25 C-2.75 0.25 -2.75 0.25 0 0 Z " fill="#213344" transform="translate(795.75,736.75)"/>
<path d="M0 0 C4.66117403 1.70312128 7.51572424 3.67551997 10 8 C10.60743506 11.32813161 10.86881328 14.62194191 11 18 C9.02 17.67 7.04 17.34 5 17 C4.9175 15.783125 4.835 14.56625 4.75 13.3125 C4.19857845 9.18051455 3.37937411 6.68616916 0 4 C-4.0197811 3.53776644 -7.05746766 4.35510945 -10.375 6.625 C-12.42007881 9.61396134 -13.19022879 12.4909914 -14 16 C-14.33 16 -14.66 16 -15 16 C-15.49074564 8.76150185 -15.49074564 8.76150185 -13.1875 5.1875 C-12.465625 4.465625 -11.74375 3.74375 -11 3 C-10.5875 2.401875 -10.175 1.80375 -9.75 1.1875 C-6.74444413 -0.85198434 -3.45156899 -0.47811107 0 0 Z " fill="#25384B" transform="translate(252,737)"/>
<path d="M0 0 C1.65 0 3.3 0 5 0 C5.01981934 0.55985596 5.03963867 1.11971191 5.06005859 1.6965332 C5.15537783 4.23565854 5.26502753 6.77396888 5.375 9.3125 C5.4059375 10.19357422 5.436875 11.07464844 5.46875 11.98242188 C5.50742187 12.82998047 5.54609375 13.67753906 5.5859375 14.55078125 C5.6173584 15.33106689 5.6487793 16.11135254 5.68115234 16.9152832 C5.89587889 19.30155768 5.89587889 19.30155768 8 22 C10.43693311 22.36416047 10.43693311 22.36416047 13.125 22.1875 C14.03507812 22.16042969 14.94515625 22.13335938 15.8828125 22.10546875 C16.58148438 22.07066406 17.28015625 22.03585937 18 22 C17.67 22.66 17.34 23.32 17 24 C10.05389222 25.50499002 10.05389222 25.50499002 6 23.5625 C5.34 23.046875 4.68 22.53125 4 22 C3.67 22.99 3.34 23.98 3 25 C0.38809945 22.38809945 0.07398976 20.43269626 -0.11352539 16.80175781 C-0.10828857 16.02670898 -0.10305176 15.25166016 -0.09765625 14.453125 C-0.09443359 13.60878906 -0.09121094 12.76445313 -0.08789062 11.89453125 C-0.07951172 11.02183594 -0.07113281 10.14914062 -0.0625 9.25 C-0.05798828 8.36183594 -0.05347656 7.47367188 -0.04882812 6.55859375 C-0.037074 4.37232671 -0.02064249 2.18619821 0 0 Z " fill="#1C3144" transform="translate(393,738)"/>
<path d="M0 0 C3.49890004 2.11391877 4.70578686 3.11736059 6 7 C3.125 7.125 3.125 7.125 0 7 C-0.66 6.34 -1.32 5.68 -2 5 C-5.58343976 4.83322718 -5.58343976 4.83322718 -9 5 C-8.89386164 7.45224694 -8.89386164 7.45224694 -8 10 C-5.52363988 11.37466625 -5.52363988 11.37466625 -3 12 C-3 12.33 -3 12.66 -3 13 C-7.47400242 13.36275695 -7.47400242 13.36275695 -9.8125 11.75 C-11 10 -11 10 -11 6 C-11.66 6 -12.32 6 -13 6 C-12.68036511 8.97115156 -12.68036511 8.97115156 -11 12 C-8.10596396 13.44437265 -5.14164535 14.26307084 -2 15 C-2 15.33 -2 15.66 -2 16 C-3.43861294 15.91253716 -4.87597508 15.80434652 -6.3125 15.6875 C-7.11300781 15.62949219 -7.91351562 15.57148437 -8.73828125 15.51171875 C-11.43785814 14.90093365 -12.38103849 14.22671047 -14 12 C-14.3930429 8.90478713 -14.61295044 6.95763464 -14 4 C-10.33825164 -0.72483659 -5.58056087 -1.02108088 0 0 Z " fill="#18283C" transform="translate(690,737)"/>
<path d="M0 0 C4.11324937 1.55216957 6.86540886 3.08658292 9 7 C9 8.32 9 9.64 9 11 C7.35 11 5.7 11 4 11 C3.71125 10.360625 3.4225 9.72125 3.125 9.0625 C2.17176549 6.84793921 2.17176549 6.84793921 0 6 C-4.94269981 5.7569164 -8.49009758 5.74504879 -13 8 C-13 9.65 -13 11.3 -13 13 C-13.99 13.495 -13.99 13.495 -15 14 C-15.49152542 7.61016949 -15.49152542 7.61016949 -13.1875 4.75 C-12.1046875 3.88375 -12.1046875 3.88375 -11 3 C-10.5875 2.4225 -10.175 1.845 -9.75 1.25 C-6.77249875 -0.87678661 -3.46853102 -0.48611988 0 0 Z " fill="#1F3145" transform="translate(567,727)"/>
<path d="M0 0 C1.65 0 3.3 0 5 0 C5.05383848 2.45862401 5.09359038 4.9160755 5.125 7.375 C5.14175781 8.07367187 5.15851562 8.77234375 5.17578125 9.4921875 C5.19344267 11.32897486 5.10303261 13.16601963 5 15 C4.34 15.66 3.68 16.32 3 17 C3 12.05 3 7.1 3 2 C2.34 2 1.68 2 1 2 C1 13.55 1 25.1 1 37 C1.66 37 2.32 37 3 37 C3 32.05 3 27.1 3 22 C3.66 22.33 4.32 22.66 5 23 C5 27.95 5 32.9 5 38 C3.35 38 1.7 38 0 38 C0 25.46 0 12.92 0 0 Z " fill="#0A1A2C" transform="translate(717,727)"/>
<path d="M0 0 C1.65 0 3.3 0 5 0 C5.07417023 4.50232334 5.1286105 9.00429091 5.16479492 13.50708008 C5.17987936 15.03871861 5.20034978 16.57031398 5.22631836 18.10180664 C5.26271847 20.30365654 5.27972913 22.50493533 5.29296875 24.70703125 C5.30845261 25.39150833 5.32393646 26.07598541 5.33988953 26.78120422 C5.34158031 31.55999359 5.34158031 31.55999359 3.48168945 33.95581055 C2.99273193 34.30039307 2.50377441 34.64497559 2 35 C2.23771118 34.21834473 2.23771118 34.21834473 2.48022461 33.42089844 C3.13978902 30.34892068 3.21997273 27.40660253 3.31640625 24.265625 C3.37924805 22.32236328 3.37924805 22.32236328 3.44335938 20.33984375 C3.48316671 18.97656524 3.52287906 17.61328394 3.5625 16.25 C3.60572274 14.87108125 3.64933821 13.49217474 3.69335938 12.11328125 C3.79943958 8.7422881 3.9014985 5.37122174 4 2 C3.34 2 2.68 2 2 2 C2.01047363 2.80743652 2.02094727 3.61487305 2.03173828 4.44677734 C2.07319831 8.08948682 2.09929438 11.73214675 2.125 15.375 C2.14175781 16.64601563 2.15851563 17.91703125 2.17578125 19.2265625 C2.18222656 20.43828125 2.18867188 21.65 2.1953125 22.8984375 C2.20578613 24.01911621 2.21625977 25.13979492 2.22705078 26.29443359 C2 29 2 29 0 31 C0 20.77 0 10.54 0 0 Z " fill="#192B3E" transform="translate(348,727)"/>
<path d="M0 0 C1.50433594 0.01353516 1.50433594 0.01353516 3.0390625 0.02734375 C3.80992187 0.03894531 4.58078125 0.05054688 5.375 0.0625 C4.625 5.8125 4.625 5.8125 2.375 8.0625 C0.28125 8.328125 0.28125 8.328125 -2.125 8.3125 C-2.9190625 8.31765625 -3.713125 8.3228125 -4.53125 8.328125 C-6.625 8.0625 -6.625 8.0625 -8.625 6.0625 C-8.375 3.5 -8.375 3.5 -7.625 1.0625 C-4.98041621 -0.25979189 -2.94738699 -0.03427194 0 0 Z " fill="#F4F6F6" transform="translate(616.625,752.9375)"/>
<path d="M0 0 C8.58 0 17.16 0 26 0 C24.89076107 5.54619464 23.0710136 10.48165105 21.0625 15.75 C20.70220703 16.72066406 20.34191406 17.69132813 19.97070312 18.69140625 C19.62072266 19.61308594 19.27074219 20.53476562 18.91015625 21.484375 C18.59183838 22.32709961 18.27352051 23.16982422 17.94555664 24.03808594 C17 26 17 26 15 27 C17.31652801 18.36382102 20.618924 10.26485244 24 2 C16.41 2 8.82 2 1 2 C0.34 3.98 -0.32 5.96 -1 8 C-2 5 -2 5 0 0 Z " fill="#0562FD" transform="translate(546,580)"/>
<path d="M0 0 C3.11810922 2.01168336 3.0544675 3.21786998 4 7 C-1.61 7 -7.22 7 -13 7 C-9.38781004 -0.22437991 -7.7230522 -0.88625189 0 0 Z " fill="#F6F7F8" transform="translate(818,742)"/>
<path d="M0 0 C3.11810922 2.01168336 3.0544675 3.21786998 4 7 C-1.61 7 -7.22 7 -13 7 C-10.16091885 -0.09770287 -7.05541338 -0.95741518 0 0 Z " fill="#F7F8F9" transform="translate(494,742)"/>
<path d="M0 0 C2.375 2.5 2.375 2.5 4 5 C4.33 5.33 4.66 5.66 5 6 C5.33 4.68 5.66 3.36 6 2 C8.32221873 5.77360544 8 7.01199411 8 12 C1.07 12 -5.86 12 -13 12 C-13 11.01 -13 10.02 -13 9 C-7.72 9 -2.44 9 3 9 C1.34922098 5.24829576 1.34922098 5.24829576 -1 2 C-2.68608966 1.92794489 -4.37500659 1.91613932 -6.0625 1.9375 C-6.98160156 1.94652344 -7.90070312 1.95554687 -8.84765625 1.96484375 C-9.55792969 1.97644531 -10.26820313 1.98804688 -11 2 C-8.77434676 -2.45130648 -4.07362283 -1.00053894 0 0 Z " fill="#132437" transform="translate(770,741)"/>
<path d="M0 0 C1.94140625 0.4296875 1.94140625 0.4296875 4.44140625 2.8046875 C5.94140625 5.4296875 5.94140625 5.4296875 5.94140625 7.4296875 C0.66140625 7.4296875 -4.61859375 7.4296875 -10.05859375 7.4296875 C-8.48556646 1.13757835 -6.71962331 -0.22274994 0 0 Z " fill="#F8F9FA" transform="translate(767.05859375,741.5703125)"/>
<path d="M0 0 C1.07765625 0.12890625 2.1553125 0.2578125 3.265625 0.390625 C4.49539063 0.56851563 4.49539063 0.56851563 5.75 0.75 C5.75 1.08 5.75 1.41 5.75 1.75 C1.46 2.74 -2.83 3.73 -7.25 4.75 C-6.8047002 9.38019987 -6.8047002 9.38019987 -5.25 10.75 C-3.73834346 11.14148761 -2.21530368 11.48972457 -0.6875 11.8125 C0.13878906 11.98910156 0.96507812 12.16570313 1.81640625 12.34765625 C2.45449219 12.48042969 3.09257813 12.61320313 3.75 12.75 C3.42 13.41 3.09 14.07 2.75 14.75 C-6.19320044 15.36441835 -6.19320044 15.36441835 -9.9375 13.1875 C-11.8496213 9.63641759 -11.34194645 7.57181259 -10.25 3.75 C-7.11089227 -0.44525612 -5.07947539 -0.66254027 0 0 Z " fill="#30495D" transform="translate(615.25,749.25)"/>
<path d="M0 0 C1.32093161 3.96279482 0.31513114 5.52368146 -1.1875 9.375 C-1.61417969 10.49648438 -2.04085937 11.61796875 -2.48046875 12.7734375 C-4.27326125 16.58024112 -6.1379506 20.0689753 -10 22 C-12.6723621 22.13415472 -15.32250488 22.04318541 -18 22 C-17.67 20.35 -17.34 18.7 -17 17 C-15.88625 16.773125 -14.7725 16.54625 -13.625 16.3125 C-9.83961627 15.39376342 -9.83961627 15.39376342 -8.5625 12.375 C-8.376875 11.59125 -8.19125 10.8075 -8 10 C-7.67 11.32 -7.34 12.64 -7 14 C-4.60926851 11.06810006 -3.15892693 8.27856712 -1.8125 4.75 C-1.46832031 3.85796875 -1.12414062 2.9659375 -0.76953125 2.046875 C-0.38861328 1.03367187 -0.38861328 1.03367187 0 0 Z " fill="#152437" transform="translate(524,754)"/>
<path d="M0 0 C1.98 0.99 1.98 0.99 4 2 C4.41388038 4.75620341 4.60557175 7.17625985 4.625 9.9375 C4.61035634 15.76407255 4.61035634 15.76407255 7 21 C9.56282742 21.72965366 9.56282742 21.72965366 12 22 C12 22.66 12 23.32 12 24 C7.39790775 24.17700355 5.21629134 24.10814567 1 22 C0.67 14.74 0.34 7.48 0 0 Z " fill="#2C4153" transform="translate(585,740)"/>
<path d="M0 0 C5.18484014 -0.31109041 8.71812729 -0.08693149 13 3 C14.72365839 7.12179181 15.27617978 9.76159271 14 14 C13.74605469 13.44570313 13.49210938 12.89140625 13.23046875 12.3203125 C12.88628906 11.59585938 12.54210937 10.87140625 12.1875 10.125 C11.85105469 9.40570312 11.51460937 8.68640625 11.16796875 7.9453125 C10.00532903 5.69457194 10.00532903 5.69457194 7 4 C4.93089407 3.97250522 4.93089407 3.97250522 2.8125 4.375 C0.9253125 4.684375 0.9253125 4.684375 -1 5 C-1.33 5.99 -1.66 6.98 -2 8 C-2.66 8 -3.32 8 -4 8 C-5.63676257 9.9600281 -5.63676257 9.9600281 -7 12 C-7.4375 9.875 -7.4375 9.875 -7 7 C-5.29500213 5.21381176 -3.48689574 3.7399118 -1.53125 2.234375 C-0.77328125 1.62335937 -0.77328125 1.62335937 0 1 C0 0.67 0 0.34 0 0 Z " fill="#31485B" transform="translate(761,737)"/>
<path d="M0 0 C0.5534764 2.07553648 1 3.84365964 1 6 C6.61 6 12.22 6 18 6 C18.33 6.66 18.66 7.32 19 8 C19 5.69 19 3.38 19 1 C21 3 21 3 21 9 C14.73 9 8.46 9 2 9 C1.67 9.99 1.34 10.98 1 12 C0.01 12 -0.98 12 -2 12 C-2.28571429 3.42857143 -2.28571429 3.42857143 0 0 Z " fill="#4D6575" transform="translate(480,743)"/>
<path d="M0 0 C2.8125 -0.3125 2.8125 -0.3125 6 0 C6.474375 0.825 6.94875 1.65 7.4375 2.5 C7.953125 3.325 8.46875 4.15 9 5 C13.39092112 5.54886514 15.28500878 5.47666082 19 3 C17.25 6.875 17.25 6.875 15 8 C11.25598728 8.4069579 9.63212653 8.49904726 6.625 6.125 C5 4 5 4 5 2 C4.01 2 3.02 2 2 2 C3.86566488 5.62793998 3.86566488 5.62793998 7 8 C8.81123407 8.07086205 10.62500973 8.08416323 12.4375 8.0625 C13.88962891 8.04896484 13.88962891 8.04896484 15.37109375 8.03515625 C16.23863281 8.02355469 17.10617187 8.01195312 18 8 C18.99 8 19.98 8 21 8 C17.42047585 10.68464311 14.50174187 11.54816504 9.99609375 11.34375 C6.51035987 10.74346706 4.56405059 9.38090412 2 7 C0.625 3.25 0.625 3.25 0 0 Z " fill="#203042" transform="translate(329,755)"/>
<path d="M0 0 C3.6773705 0.20429836 4.80084985 0.77932011 7.3125 3.5625 C9 7 9 7 9 15 C2.4 15 -4.2 15 -11 15 C-11 14.67 -11 14.34 -11 14 C-4.73 14 1.54 14 8 14 C7.67 12.02 7.34 10.04 7 8 C6.67 9.65 6.34 11.3 6 13 C0.39 13 -5.22 13 -11 13 C-11 12.67 -11 12.34 -11 12 C-5.72 12 -0.44 12 5 12 C4.01 10.02 3.02 8.04 2 6 C1.67 5.34 1.34 4.68 1 4 C2.32 4 3.64 4 5 4 C3.35 2.68 1.7 1.36 0 0 Z " fill="#0C1B2D" transform="translate(493,738)"/>
<path d="M0 0 C2.8125 -0.3125 2.8125 -0.3125 6 0 C8.04308411 2.60669352 8.95446418 4.86339253 10 8 C12.97 8.33 15.94 8.66 19 9 C19 9.33 19 9.66 19 10 C8.13631949 11.74997086 8.13631949 11.74997086 3.875 8.9375 C1.99121276 5.98623332 0.8659388 3.3850335 0 0 Z " fill="#385164" transform="translate(549,754)"/>
<path d="M0 0 C0.61875 0.78375 1.2375 1.5675 1.875 2.375 C4.29393847 5.76657427 4.29393847 5.76657427 7.875 7.265625 C8.57625 7.26046875 9.2775 7.2553125 10 7.25 C10.70125 7.25515625 11.4025 7.2603125 12.125 7.265625 C14.2435669 7.15705515 14.2435669 7.15705515 16 5 C19.125 4.875 19.125 4.875 22 5 C19.93145393 9.02822129 18.21285902 11.2212373 14 13 C11.19332983 13.34543633 8.85970275 13.23440187 6 13 C5.34 12.34 4.68 11.68 4 11 C5.15628906 10.92652344 5.15628906 10.92652344 6.3359375 10.8515625 C7.33882813 10.77679687 8.34171875 10.70203125 9.375 10.625 C10.37273437 10.55539062 11.37046875 10.48578125 12.3984375 10.4140625 C15.15508879 10.23636036 15.15508879 10.23636036 17 8 C16.319375 8.350625 15.63875 8.70125 14.9375 9.0625 C11.09622112 10.28844007 8.8771612 10.10776034 5 9 C2.79261885 7.15221728 1.62210664 5.45773733 0 3 C0 2.01 0 1.02 0 0 Z " fill="#192B3E" transform="translate(480,753)"/>
<path d="M0 0 C2.4375 0.3125 2.4375 0.3125 4.4375 2.3125 C7.00811311 2.96017793 7.00811311 2.96017793 9.4375 3.3125 C8.1175 3.6425 6.7975 3.9725 5.4375 4.3125 C5.1075 5.6325 4.7775 6.9525 4.4375 8.3125 C-1.0236399 7.96016839 -1.0236399 7.96016839 -3.5625 7.3125 C-5.0625 5.25 -5.0625 5.25 -5.5625 3.3125 C-3.75137927 1.02476855 -2.95529457 0.36040178 0 0 Z " fill="#EAECEF" transform="translate(685.5625,740.6875)"/>
<path d="M0 0 C0.33 0.99 0.66 1.98 1 3 C7.27 3 13.54 3 20 3 C19.67 4.32 19.34 5.64 19 7 C9.595 7.495 9.595 7.495 0 8 C-1 3 -1 3 0 0 Z " fill="#4F6678" transform="translate(721,742)"/>
<path d="M0 0 C0.33 0 0.66 0 1 0 C1.19412181 1.47831221 1.38012131 2.95769316 1.5625 4.4375 C1.71912109 5.67306641 1.71912109 5.67306641 1.87890625 6.93359375 C1.93884766 7.95646484 1.93884766 7.95646484 2 9 C1 10 1 10 -2.23461914 10.11352539 C-3.66814126 10.11336631 -5.10166912 10.10767407 -6.53515625 10.09765625 C-7.66503212 10.09553383 -7.66503212 10.09553383 -8.81773376 10.09336853 C-11.2326956 10.08775376 -13.64756601 10.07519883 -16.0625 10.0625 C-17.69596221 10.0574869 -19.32942586 10.05292366 -20.96289062 10.04882812 C-24.97529585 10.03777954 -28.98763241 10.02050506 -33 10 C-33 9.67 -33 9.34 -33 9 C-22.06028181 7.53439182 -11.01045894 7.90529577 0 8 C0 5.36 0 2.72 0 0 Z " fill="#126AFC" transform="translate(429,615)"/>
<path d="M0 0 C0.66 0.33 1.32 0.66 2 1 C-9.991681 9.17310102 -20.62756149 11.21240057 -35 11 C-33 9 -33 9 -29.7421875 8.8046875 C-28.46601562 8.82789063 -27.18984375 8.85109375 -25.875 8.875 C-23.95300781 8.90207031 -23.95300781 8.90207031 -21.9921875 8.9296875 C-20.51105469 8.96449219 -20.51105469 8.96449219 -19 9 C-19 8.34 -19 7.68 -19 7 C-14 6 -14 6 -11.6171875 5.62890625 C-7.9619237 4.75055181 -5.17501471 2.89975685 -1.98828125 0.9609375 C-1.33214844 0.64382813 -0.67601562 0.32671875 0 0 Z " fill="#0862FC" transform="translate(825,676)"/>
<path d="M0 0 C2.03115505 1.55194314 3.38556182 2.99586984 5 5 C2 5 2 5 -0.3125 3.125 C-7.19045383 -2.3133821 -15.6507844 -1.60387408 -24 -1 C-27.23246916 -0.26611921 -29.93295127 0.70861106 -33 2 C-33 1.34 -33 0.68 -33 0 C-21.01082315 -4.61439109 -11.80186711 -5.93888168 0 0 Z " fill="#0A64FC" transform="translate(645,601)"/>
<path d="M0 0 C0.33 0 0.66 0 1 0 C1.07347656 1.68029297 1.07347656 1.68029297 1.1484375 3.39453125 C1.22347856 4.86721203 1.29902582 6.33986707 1.375 7.8125 C1.4059375 8.55048828 1.436875 9.28847656 1.46875 10.04882812 C1.67346148 13.81893115 1.86433827 15.79650741 4 19 C6.56282742 19.72965366 6.56282742 19.72965366 9 20 C9 20.66 9 21.32 9 22 C2.73502557 22.48192111 2.73502557 22.48192111 -0.24609375 20.52734375 C-2.84002397 16.7895423 -2.24878972 13.70839385 -1.8125 9.3125 C-1.75513672 8.52810547 -1.69777344 7.74371094 -1.63867188 6.93554688 C-1.17569314 1.17569314 -1.17569314 1.17569314 0 0 Z " fill="#3D5568" transform="translate(660,742)"/>
<path d="M0 0 C0.33 0 0.66 0 1 0 C1 2.31 1 4.62 1 7 C1.99 7 2.98 7 4 7 C3.78743957 10.71980755 3.02398225 11.97426295 0.4375 14.75 C-3.19056281 17.56594169 -6.49189016 17.7668219 -11 18 C-10 16 -10 16 -8.15234375 15.3671875 C-7.05599609 15.12355469 -7.05599609 15.12355469 -5.9375 14.875 C-5.20402344 14.70742188 -4.47054687 14.53984375 -3.71484375 14.3671875 C-3.14894531 14.24601563 -2.58304688 14.12484375 -2 14 C-2 13.34 -2 12.68 -2 12 C-2.99 12 -3.98 12 -5 12 C-4.52949219 11.60167969 -4.05898437 11.20335937 -3.57421875 10.79296875 C-1.68239447 8.6382607 -1.33939211 7.10908118 -0.8125 4.3125 C-0.65394531 3.50425781 -0.49539063 2.69601562 -0.33203125 1.86328125 C-0.22246094 1.24839844 -0.11289062 0.63351562 0 0 Z " fill="#192A3E" transform="translate(258,748)"/>
<path d="M0 0 C0.78697266 0.24556641 0.78697266 0.24556641 1.58984375 0.49609375 C4.62555222 1.13078806 7.46280674 1.09423747 10.5625 1.0625 C11.69816406 1.05347656 12.83382812 1.04445313 14.00390625 1.03515625 C15.48697266 1.01775391 15.48697266 1.01775391 17 1 C17.99 1 18.98 1 20 1 C16.91521188 5.20652926 13.34831508 6.16804519 8.4140625 7.01953125 C6 7 6 7 2.9375 4.75 C1 2 1 2 0 0 Z " fill="#2A4156" transform="translate(238,759)"/>
<path d="M0 0 C0.66 0 1.32 0 2 0 C2 0.99 2 1.98 2 3 C2.66 3 3.32 3 4 3 C3.84660156 3.64324219 3.69320313 4.28648437 3.53515625 4.94921875 C2.84253326 8.89767537 2.64199119 12.8131887 2.4375 16.8125 C2.39431641 17.60076172 2.35113281 18.38902344 2.30664062 19.20117188 C2.20121679 21.13394215 2.10016906 23.06695026 2 25 C1.34 25 0.68 25 0 25 C0 16.75 0 8.5 0 0 Z " fill="#344E60" transform="translate(300,739)"/>
<path d="M0 0 C0.33 0 0.66 0 1 0 C1.33 3.3 1.66 6.6 2 10 C8.6 10 15.2 10 22 10 C22 10.66 22 11.32 22 12 C14.74 12 7.48 12 0 12 C0 8.04 0 4.08 0 0 Z " fill="#0066FD" transform="translate(430,673)"/>
<path d="M0 0 C0.66 0 1.32 0 2 0 C2.66 1.98 3.32 3.96 4 6 C3.67 6.33 3.34 6.66 3 7 C2.84417697 8.34015221 2.74955858 9.68758903 2.68359375 11.03515625 C2.62075195 12.24848633 2.62075195 12.24848633 2.55664062 13.48632812 C2.51732422 14.33646484 2.47800781 15.18660156 2.4375 16.0625 C2.39431641 16.91650391 2.35113281 17.77050781 2.30664062 18.65039062 C2.20023298 20.76672037 2.09958269 22.88333813 2 25 C1.34 25 0.68 25 0 25 C0 16.75 0 8.5 0 0 Z " fill="#3C576A" transform="translate(447,739)"/>
<path d="M0 0 C6.93 0 13.86 0 21 0 C21 0.33 21 0.66 21 1 C14.565 1.495 14.565 1.495 8 2 C7.67 3.32 7.34 4.64 7 6 C6.34 6 5.68 6 5 6 C4.67 6.66 4.34 7.32 4 8 C2 6.25 2 6.25 0 4 C0 2.68 0 1.36 0 0 Z " fill="#EFF2F3" transform="translate(757,753)"/>
<path d="M0 0 C0.33 0.99 0.66 1.98 1 3 C-3.02307241 9.64996288 -9.8441576 11.12305773 -17 13 C-20.15707064 13.33810663 -22.82283587 13.27389346 -26 13 C-26 12.67 -26 12.34 -26 12 C-25.05898438 11.81824219 -24.11796875 11.63648438 -23.1484375 11.44921875 C-21.90320313 11.19785156 -20.65796875 10.94648437 -19.375 10.6875 C-17.53035156 10.32205078 -17.53035156 10.32205078 -15.6484375 9.94921875 C-10.45258507 8.59740704 -6.3125224 6.76341686 -2.625 2.8125 C-1.75875 1.884375 -0.8925 0.95625 0 0 Z " fill="#0A63FC" transform="translate(425,656)"/>
<path d="M0 0 C1.98 0 3.96 0 6 0 C5.21710425 2.31581759 4.42424269 4.62732941 3.625 6.9375 C3.40328125 7.59685547 3.1815625 8.25621094 2.953125 8.93554688 C1.2265625 13.88671875 1.2265625 13.88671875 -1 15 C-0.34 12.69 0.32 10.38 1 8 C0.01 7.67 -0.98 7.34 -2 7 C-1.34 4.69 -0.68 2.38 0 0 Z " fill="#1F3143" transform="translate(526,738)"/>
<path d="M0 0 C0.99 0.33 1.98 0.66 3 1 C2.88637738 2.4800841 2.75877092 3.95910074 2.625 5.4375 C2.55539062 6.26121094 2.48578125 7.08492187 2.4140625 7.93359375 C2.27742187 8.61550781 2.14078125 9.29742188 2 10 C1.01 10.495 1.01 10.495 0 11 C-1.05352843 13.30965848 -2.05719096 15.6429774 -3 18 C-4.07868195 14.6951021 -3.90419019 12.38236521 -3.1875 9 C-3.01605469 8.154375 -2.84460938 7.30875 -2.66796875 6.4375 C-2.02335268 4.0852168 -1.17002281 2.1326998 0 0 Z " fill="#32495E" transform="translate(524,745)"/>
<path d="M0 0 C1.31291016 0.30357422 1.31291016 0.30357422 2.65234375 0.61328125 C3.96912109 0.89751953 3.96912109 0.89751953 5.3125 1.1875 C7.58984375 1.92578125 7.58984375 1.92578125 9.58984375 3.92578125 C9.00976562 3.89097656 8.4296875 3.85617187 7.83203125 3.8203125 C2.70154941 3.64252353 -1.21261187 3.62771066 -5.41015625 6.92578125 C-6.77752268 9.84697317 -7.66156243 12.79350709 -8.41015625 15.92578125 C-8.74015625 15.92578125 -9.07015625 15.92578125 -9.41015625 15.92578125 C-9.90090189 8.6872831 -9.90090189 8.6872831 -7.59765625 5.11328125 C-6.87578125 4.39140625 -6.15390625 3.66953125 -5.41015625 2.92578125 C-4.75660156 2.09433594 -4.75660156 2.09433594 -4.08984375 1.24609375 C-2.41015625 -0.07421875 -2.41015625 -0.07421875 0 0 Z " fill="#425C6D" transform="translate(246.41015625,737.07421875)"/>
<path d="M0 0 C1.98 0 3.96 0 6 0 C3.80210057 4.51790439 1.72061191 6.27516103 -3 8 C-7.41924065 8.55240508 -9.47386637 8.27741591 -13.4375 6.1875 C-14.283125 5.465625 -15.12875 4.74375 -16 4 C-16 3.01 -16 2.02 -16 1 C-15.38125 1.66 -14.7625 2.32 -14.125 3 C-9.84319745 5.74035363 -5.97617569 5.72534086 -1 5 C-0.01 4.34 0.98 3.68 2 3 C1.34 2.67 0.68 2.34 0 2 C0 1.34 0 0.68 0 0 Z " fill="#102135" transform="translate(771,758)"/>
<path d="M0 0 C0.94875 0.04125 1.8975 0.0825 2.875 0.125 C1.875 3.125 1.875 3.125 -0.0625 4.25 C-0.743125 4.53875 -1.42375 4.8275 -2.125 5.125 C-3.115 5.62 -3.115 5.62 -4.125 6.125 C-5.66523996 6.19450541 -7.20834988 6.20952357 -8.75 6.1875 C-9.97589844 6.17396484 -9.97589844 6.17396484 -11.2265625 6.16015625 C-12.16628906 6.14275391 -12.16628906 6.14275391 -13.125 6.125 C-12.795 5.135 -12.465 4.145 -12.125 3.125 C-11.01125 3.00125 -9.8975 2.8775 -8.75 2.75 C-4.70641243 2.05282973 -3.97840317 0.15913613 0 0 Z " fill="#213548" transform="translate(823.125,757.875)"/>
<path d="M0 0 C0.66 0 1.32 0 2 0 C2 8.25 2 16.5 2 25 C1.67 23.68 1.34 22.36 1 21 C0.34 21 -0.32 21 -1 21 C-0.67 14.07 -0.34 7.14 0 0 Z " fill="#3F5769" transform="translate(414,739)"/>
<path d="M0 0 C1.65 0 3.3 0 5 0 C0.18223235 10.74259681 0.18223235 10.74259681 -5 14 C-4.34580901 8.93001981 -2.1453591 4.58009223 0 0 Z " fill="#2C4154" transform="translate(231,728)"/>
<path d="M0 0 C0.99 0 1.98 0 3 0 C2.67 7.26 2.34 14.52 2 22 C1.34 22 0.68 22 0 22 C-0.1964031 18.70880065 -0.38060745 15.41703066 -0.5625 12.125 C-0.61857422 11.18785156 -0.67464844 10.25070312 -0.73242188 9.28515625 C-0.78076172 8.38925781 -0.82910156 7.49335937 -0.87890625 6.5703125 C-0.9260376 5.74289551 -0.97316895 4.91547852 -1.02172852 4.06298828 C-1 2 -1 2 0 0 Z " fill="#3F586A" transform="translate(467,742)"/>
<path d="M0 0 C0.33 0 0.66 0 1 0 C1 1.65 1 3.3 1 5 C1.66 5 2.32 5 3 5 C2.67 11.6 2.34 18.2 2 25 C1.34 25 0.68 25 0 25 C0 16.75 0 8.5 0 0 Z " fill="#425C6E" transform="translate(636,739)"/>
<path d="M0 0 C6.25696656 0.53939367 11.36301772 1.36301772 16 6 C16 6.99 16 7.98 16 9 C15.34 9 14.68 9 14 9 C14 10.65 14 12.3 14 14 C13.01 14.495 13.01 14.495 12 15 C11.61077082 13.71254964 11.23901964 12.41980403 10.875 11.125 C10.66617188 10.40570312 10.45734375 9.68640625 10.2421875 8.9453125 C10.16226563 8.30335938 10.08234375 7.66140625 10 7 C10.66 6.34 11.32 5.68 12 5 C8.04 3.68 4.08 2.36 0 1 C0 0.67 0 0.34 0 0 Z " fill="#112135" transform="translate(560,743)"/>
<path d="M0 0 C0.66 0 1.32 0 2 0 C2.309375 0.804375 2.61875 1.60875 2.9375 2.4375 C3.76335345 4.89080405 3.76335345 4.89080405 5 6 C6.8871875 5.87625 6.8871875 5.87625 8.8125 5.75 C10.98828125 5.703125 10.98828125 5.703125 13 6 C15.5 8.5 15.5 8.5 17 11 C14.36 11 11.72 11 9 11 C9 10.34 9 9.68 9 9 C7.88625 8.71125 6.7725 8.4225 5.625 8.125 C2 7 2 7 0 5 C-0.125 2.375 -0.125 2.375 0 0 Z " fill="#425C6F" transform="translate(677,743)"/>
<path d="M0 0 C1.65 0 3.3 0 5 0 C5 1.98 5 3.96 5 6 C4.67 4.68 4.34 3.36 4 2 C3.34 2 2.68 2 2 2 C2 6.95 2 11.9 2 17 C1.34 17 0.68 17 0 17 C0 11.39 0 5.78 0 0 Z " fill="#1B2D3F" transform="translate(740,727)"/>
<path d="M0 0 C1.1446875 1.175625 1.1446875 1.175625 2.3125 2.375 C6.06084004 6.06002859 6.06084004 6.06002859 11 7.3125 C14.00549465 7.27257488 14.00549465 7.27257488 15.875 5.5 C16.24625 5.005 16.6175 4.51 17 4 C17.99 4.66 18.98 5.32 20 6 C16.15759198 9.32890649 13.44029287 9.56849979 8.484375 9.421875 C4.37054051 8.72329933 2.71076536 7.13878094 0 4 C0 2.68 0 1.36 0 0 Z " fill="#425D6F" transform="translate(754,755)"/>
<path d="M0 0 C0 1.65 0 3.3 0 5 C-1.11375 5.309375 -2.2275 5.61875 -3.375 5.9375 C-6.7945155 6.82326483 -6.7945155 6.82326483 -9 8 C-8.6875 5.125 -8.6875 5.125 -8 2 C-4.77208445 -0.1519437 -3.71599191 -0.20086443 0 0 Z " fill="#203144" transform="translate(798,737)"/>
<path d="M0 0 C0.66 0.33 1.32 0.66 2 1 C3.2883509 1.48801171 4.58047903 1.96609897 5.875 2.4375 C8.67844766 3.47732422 11.36569983 4.57308741 14 6 C13.67 6.66 13.34 7.32 13 8 C11.26982492 7.54548816 9.54090123 7.08621143 7.8125 6.625 C6.84957031 6.36976563 5.88664063 6.11453125 4.89453125 5.8515625 C2.17789793 5.05233704 -0.39137175 4.0968638 -3 3 C-2.01 2.01 -1.02 1.02 0 0 Z " fill="#3F576B" transform="translate(559,742)"/>
<path d="M0 0 C0.66 0.33 1.32 0.66 2 1 C-0.37415225 3.06347747 -2.74947768 5.12560001 -5.125 7.1875 C-5.79015625 7.76564453 -6.4553125 8.34378906 -7.140625 8.93945312 C-11.05779043 12.33817019 -15.00370276 15.69465135 -19 19 C-15.49305013 10.84172714 -7.11187887 4.94149622 0 0 Z " fill="#0859FB" transform="translate(437,221)"/>
<path d="M0 0 C0.7425 0.0825 1.485 0.165 2.25 0.25 C1.26 0.91 0.27 1.57 -0.75 2.25 C0.36375 2.394375 1.4775 2.53875 2.625 2.6875 C6.25 3.25 6.25 3.25 8.25 4.25 C7.92 4.91 7.59 5.57 7.25 6.25 C6.59 5.92 5.93 5.59 5.25 5.25 C1.01028942 5.01446052 -2.11178302 4.92154114 -5.75 7.25 C-6.08 6.26 -6.41 5.27 -6.75 4.25 C-3.42692308 0.31153846 -3.42692308 0.31153846 0 0 Z " fill="#172A3F" transform="translate(456.75,737.75)"/>
<path d="M0 0 C1.65 0 3.3 0 5 0 C5.05383848 2.45862401 5.09359038 4.9160755 5.125 7.375 C5.14175781 8.07367187 5.15851562 8.77234375 5.17578125 9.4921875 C5.19344267 11.32897486 5.10303261 13.16601963 5 15 C4.34 15.66 3.68 16.32 3 17 C3 12.05 3 7.1 3 2 C2.01 2 1.02 2 0 2 C0 1.34 0 0.68 0 0 Z " fill="#21384B" transform="translate(717,727)"/>
<path d="M0 0 C0 2.31 0 4.62 0 7 C1.98 7 3.96 7 6 7 C6 7.66 6 8.32 6 9 C-0.625 9.125 -0.625 9.125 -4 8 C-4 5.69 -4 3.38 -4 1 C-1 0 -1 0 0 0 Z " fill="#3A5265" transform="translate(663,732)"/>
<path d="M0 0 C0.66 0 1.32 0 2 0 C2 4.62 2 9.24 2 14 C1.01 13.67 0.02 13.34 -1 13 C-1.33 12.01 -1.66 11.02 -2 10 C-1.67 9.34 -1.34 8.68 -1 8 C-1 6.824375 -1 5.64875 -1 4.4375 C-1 1 -1 1 0 0 Z " fill="#3A5466" transform="translate(623,750)"/>
<path d="M0 0 C0 0.33 0 0.66 0 1 C-1.258125 1.268125 -2.51625 1.53625 -3.8125 1.8125 C-8.07793626 2.87114704 -8.07793626 2.87114704 -11 6 C-12.20049407 9.10007201 -12.20049407 9.10007201 -13 12 C-13.33 12 -13.66 12 -14 12 C-14.49065421 5.62149533 -14.49065421 5.62149533 -12.125 2.625 C-7.97879419 -0.54562797 -5.10751621 -0.08237929 0 0 Z " fill="#425D70" transform="translate(566,729)"/>
<path d="M0 0 C2 0 2 0 4.125 2 C4.74375 2.66 5.3625 3.32 6 4 C6 3.67 6 3.34 6 3 C8.875 2.875 8.875 2.875 12 3 C12.66 3.66 13.32 4.32 14 5 C12.34346314 6.65653686 10.39349204 6.17106165 8.125 6.1875 C7.24070312 6.20167969 6.35640625 6.21585938 5.4453125 6.23046875 C3 6 3 6 0 4 C0 2.68 0 1.36 0 0 Z " fill="#496273" transform="translate(605,758)"/>
<path d="M0 0 C-3.23483363 3.6045289 -5.13533085 5.54747264 -10 6 C-11.4378121 6.18509148 -12.87529809 6.37272862 -14.3125 6.5625 C-16.1378125 6.7790625 -16.1378125 6.7790625 -18 7 C-15.07003848 5.04669232 -12.12812793 3.42639934 -9 1.8125 C-7.4221875 0.98685547 -7.4221875 0.98685547 -5.8125 0.14453125 C-3 -1 -3 -1 0 0 Z " fill="#1669F0" transform="translate(543,370)"/>
<path d="M0 0 C0.70125 0.144375 1.4025 0.28875 2.125 0.4375 C5.040053 1.04566172 5.040053 1.04566172 8.1875 1.375 C11 2 11 2 13 5 C4.87371744 5.46882399 4.87371744 5.46882399 1.4375 3.625 C0 2 0 2 0 0 Z " fill="#425B6D" transform="translate(677,759)"/>
<path d="M0 0 C0.33 0 0.66 0 1 0 C1.08103404 2.91722548 1.14051081 5.83219516 1.1875 8.75 C1.21263672 9.575 1.23777344 10.4 1.26367188 11.25 C1.33834499 17.42297754 1.33834499 17.42297754 -0.51171875 20.578125 C-1.24841797 21.28195312 -1.24841797 21.28195312 -2 22 C-2.66 21.34 -3.32 20.68 -4 20 C-3.34 18.68 -2.68 17.36 -2 16 C-1.34 16 -0.68 16 0 16 C0 10.72 0 5.44 0 0 Z " fill="#3A5467" transform="translate(351,740)"/>
<path d="M0 0 C2.88395737 1.44197868 4.76525152 3.70644235 7 6 C5.9790625 5.7834375 5.9790625 5.7834375 4.9375 5.5625 C-2.53314833 4.06827012 -2.53314833 4.06827012 -10 5 C-8.9375 3.5 -8.9375 3.5 -7 2 C-3.3125 1.8125 -3.3125 1.8125 0 2 C0 1.34 0 0.68 0 0 Z " fill="#425B6E" transform="translate(492,737)"/>
<path d="M0 0 C0.66 0.33 1.32 0.66 2 1 C1.54625 1.391875 1.0925 1.78375 0.625 2.1875 C-1.14794633 3.9276217 -1.14794633 3.9276217 -1.8125 6.375 C-3.47305121 10.04569215 -5.81038165 11.57311647 -9 14 C-8.39466304 10.32594092 -6.81662645 8.18454714 -4.5 5.3125 C-3.8709375 4.52488281 -3.241875 3.73726563 -2.59375 2.92578125 C-1 1 -1 1 0 0 Z " fill="#FD7E12" transform="translate(545,278)"/>
<path d="M0 0 C2.69082872 0.17635452 5.32851446 0.61835921 8 1 C4.44221079 4.55778921 -0.64709495 4.95168196 -5.5 5.125 C-6.325 5.08375 -7.15 5.0425 -8 5 C-5 3 -5 3 -2 3 C-1.67 2.34 -1.34 1.68 -1 1 C-0.67 0.67 -0.34 0.34 0 0 Z " fill="#F99B15" transform="translate(584,353)"/>
<path d="M0 0 C2.375 0.3125 2.375 0.3125 5 1 C5.763125 1.185625 6.52625 1.37125 7.3125 1.5625 C8.1478125 1.7790625 8.1478125 1.7790625 9 2 C7.3603125 2.556875 7.3603125 2.556875 5.6875 3.125 C2.45411511 4.4798799 2.01423545 4.97658038 0.0625 8.1875 C-0.288125 9.115625 -0.63875 10.04375 -1 11 C-2.2077558 7.37673261 -1.54311128 6.35853631 0 3 C-0.66 2.67 -1.32 2.34 -2 2 C-1.34 1.34 -0.68 0.68 0 0 Z " fill="#192B3E" transform="translate(806,739)"/>
<path d="M0 0 C0.33 0 0.66 0 1 0 C1.04898437 0.71027344 1.09796875 1.42054688 1.1484375 2.15234375 C1.22320312 3.07144531 1.29796875 3.99054687 1.375 4.9375 C1.44460938 5.85402344 1.51421875 6.77054688 1.5859375 7.71484375 C1.72257812 8.46894531 1.85921875 9.22304688 2 10 C2.66 10.33 3.32 10.66 4 11 C3.67 12.65 3.34 14.3 3 16 C2.01 16.33 1.02 16.66 0 17 C0 11.39 0 5.78 0 0 Z " fill="#E7F7FC" transform="translate(313,580)"/>
<path d="M0 0 C0.66 0.66 1.32 1.32 2 2 C-1.01447835 4.57075841 -3.35979771 5.52207066 -7.25 6.1875 C-8.58804688 6.42533203 -8.58804688 6.42533203 -9.953125 6.66796875 C-10.96632812 6.83232422 -10.96632812 6.83232422 -12 7 C-12 6.01 -12 5.02 -12 4 C-11.38511719 3.87882813 -10.77023438 3.75765625 -10.13671875 3.6328125 C-9.32847656 3.46523438 -8.52023438 3.29765625 -7.6875 3.125 C-6.88699219 2.96257813 -6.08648437 2.80015625 -5.26171875 2.6328125 C-2.74698882 2.05521001 -2.74698882 2.05521001 0 0 Z " fill="#435C6E" transform="translate(256,759)"/>
<path d="M0 0 C0.99 0.33 1.98 0.66 3 1 C0 4 -3 7 -6 10 C-6.375 7.8125 -6.375 7.8125 -6 5 C-4.17212359 2.80074553 -2.43487461 1.62324974 0 0 Z " fill="#41596C" transform="translate(760,739)"/>
<path d="M0 0 C3.88701516 1.29567172 4.81212435 3.07803051 7.1875 6.375 C7.90292969 7.35210937 8.61835938 8.32921875 9.35546875 9.3359375 C11 12 11 12 11 15 C9.16064138 12.87996003 7.32843267 10.75442773 5.5 8.625 C4.71302734 7.72007812 4.71302734 7.72007812 3.91015625 6.796875 C0 2.2265625 0 2.2265625 0 0 Z " fill="#1063FB" transform="translate(458,450)"/>
<path d="M0 0 C4.29 0.66 8.58 1.32 13 2 C10.38549037 4.61450963 8.48807707 4.66243926 4.91015625 5.0390625 C3 5 3 5 1 3.6875 C0 2 0 2 0 0 Z " fill="#284154" transform="translate(271,759)"/>
<path d="M0 0 C6.93 0 13.86 0 21 0 C21 0.33 21 0.66 21 1 C15.06 1 9.12 1 3 1 C2.67 1.99 2.34 2.98 2 4 C1.34 2.68 0.68 1.36 0 0 Z " fill="#E1E7E8" transform="translate(805,753)"/>
<path d="M0 0 C0.66 0.33 1.32 0.66 2 1 C-1.27301919 3.96909598 -3.38065762 4.34354794 -7.75 4.1875 C-9.22726562 4.14689453 -9.22726562 4.14689453 -10.734375 4.10546875 C-11.85585938 4.05326172 -11.85585938 4.05326172 -13 4 C-13 3.01 -13 2.02 -13 1 C-11.783125 1.20625 -10.56625 1.4125 -9.3125 1.625 C-5.60387226 2.11073178 -3.416139 1.60759482 0 0 Z " fill="#456071" transform="translate(497,760)"/>
<path d="M0 0 C2.8125 -0.3125 2.8125 -0.3125 6 0 C7.8125 2.375 7.8125 2.375 9 5 C9.33 5.66 9.66 6.32 10 7 C8.0625 6.1875 8.0625 6.1875 6 5 C5.67 4.01 5.34 3.02 5 2 C4.01 2 3.02 2 2 2 C2.33 3.32 2.66 4.64 3 6 C2.34 5.67 1.68 5.34 1 5 C0.375 2.4375 0.375 2.4375 0 0 Z " fill="#293749" transform="translate(549,754)"/>
<path d="M0 0 C2.10633718 1.70828921 2.93801608 2.52148416 3.29296875 5.26171875 C3.25816406 6.06222656 3.22335937 6.86273437 3.1875 7.6875 C3.16042969 8.49574219 3.13335937 9.30398438 3.10546875 10.13671875 C3.07066406 10.75160156 3.03585937 11.36648438 3 12 C2.34 12 1.68 12 1 12 C0.63896464 10.18885568 0.28634496 8.37603177 -0.0625 6.5625 C-0.25972656 5.55316406 -0.45695312 4.54382813 -0.66015625 3.50390625 C-0.77230469 2.67761719 -0.88445312 1.85132813 -1 1 C-0.67 0.67 -0.34 0.34 0 0 Z " fill="#41596C" transform="translate(258,743)"/>
<path d="M0 0 C0.66 0.495 1.32 0.99 2 1.5 C5.96633241 3.48316621 8.60303262 3.22357461 13 3 C12.67 3.66 12.34 4.32 12 5 C10.39667209 5.08121924 8.79215974 5.13929134 7.1875 5.1875 C6.29417969 5.22230469 5.40085937 5.25710938 4.48046875 5.29296875 C1.58352485 4.95081002 0.77444972 4.24606427 -1 2 C-0.67 1.34 -0.34 0.68 0 0 Z " fill="#425C6E" transform="translate(397,759)"/>
<path d="M0 0 C0.268125 0.5775 0.53625 1.155 0.8125 1.75 C2.01719859 4.0325868 3.40798115 5.9737942 5 8 C3.35 8.33 1.7 8.66 0 9 C-0.66 8.01 -1.32 7.02 -2 6 C-1.125 2.8125 -1.125 2.8125 0 0 Z " fill="#263C51" transform="translate(554,735)"/>
<path d="M0 0 C0 0.66 0 1.32 0 2 C0.66 2 1.32 2 2 2 C1.34 3.65 0.68 5.3 0 7 C-0.99 6.67 -1.98 6.34 -3 6 C-3.33 4.35 -3.66 2.7 -4 1 C-2 0 -2 0 0 0 Z " fill="#EBF6FB" transform="translate(518,649)"/>
<path d="M0 0 C0.99 0.33 1.98 0.66 3 1 C1.0373772 3.04795423 -0.4277307 3.94976638 -3.26953125 4.19921875 C-5.51954383 4.18858877 -7.75385562 4.12958525 -10 4 C-9.67 3.01 -9.34 2.02 -9 1 C-8.071875 1.20625 -7.14375 1.4125 -6.1875 1.625 C-2.84826598 2.36692966 -2.84826598 2.36692966 0 0 Z " fill="#445E71" transform="translate(820,760)"/>
<path d="M0 0 C2.97 0.99 5.94 1.98 9 3 C9 3.66 9 4.32 9 5 C5.625 5.125 5.625 5.125 2 5 C1.34 4.34 0.68 3.68 0 3 C0 2.01 0 1.02 0 0 Z " fill="#415D70" transform="translate(588,759)"/>
<path d="M0 0 C0.66 0.33 1.32 0.66 2 1 C2.36717663 8.4659249 2.36717663 8.4659249 0.625 11 C-1 12 -1 12 -3 12 C-2.690625 11.2575 -2.38125 10.515 -2.0625 9.75 C-0.73660704 6.31827705 0 3.6850731 0 0 Z " fill="#3B586C" transform="translate(573,751)"/>
<path d="M0 0 C3.3 0 6.6 0 10 0 C9.01 1.485 9.01 1.485 8 3 C4.375 3.6875 4.375 3.6875 1 4 C1 3.34 1 2.68 1 2 C0.67 1.34 0.34 0.68 0 0 Z " fill="#4A6273" transform="translate(507,771)"/>
<path d="M0 0 C1 2 1 2 0.44140625 3.9453125 C0.15136719 4.66460938 -0.13867188 5.38390625 -0.4375 6.125 C-0.72496094 6.84945312 -1.01242187 7.57390625 -1.30859375 8.3203125 C-1.53675781 8.87460937 -1.76492188 9.42890625 -2 10 C-2.66 10 -3.32 10 -4 10 C-4 7.69 -4 5.38 -4 3 C-3.34 3 -2.68 3 -2 3 C-1.34 2.01 -0.68 1.02 0 0 Z " fill="#2D4358" transform="translate(757,744)"/>
<path d="M0 0 C3.68802044 1.22934015 4.72356973 2.93859378 7 6 C3.125 5.125 3.125 5.125 2 4 C-0.32817964 3.63239269 -2.6618385 3.29758419 -5 3 C-4.360625 2.690625 -3.72125 2.38125 -3.0625 2.0625 C-1.06389179 1.1654837 -1.06389179 1.1654837 0 0 Z " fill="#455C70" transform="translate(687,737)"/>
<path d="M0 0 C0.66 0 1.32 0 2 0 C4.74375671 2.95481492 5 3.77471908 5 8 C3.0625 7.375 3.0625 7.375 1 6 C0.25 2.875 0.25 2.875 0 0 Z " fill="#2D4456" transform="translate(479,756)"/>
<path d="M0 0 C1.98 0 3.96 0 6 0 C4.68 1.65 3.36 3.3 2 5 C1.01 4.67 0.02 4.34 -1 4 C-0.67 2.68 -0.34 1.36 0 0 Z " fill="#F2F4F6" transform="translate(681,742)"/>
<path d="M0 0 C0.33 0.66 0.66 1.32 1 2 C0.319375 2.61875 0.319375 2.61875 -0.375 3.25 C-2.05950374 5.06408095 -2.99265971 6.75285627 -4 9 C-4.99 8.34 -5.98 7.68 -7 7 C-4.69 4.69 -2.38 2.38 0 0 Z " fill="#E99D30" transform="translate(552,270)"/>
<path d="M0 0 C-1.65 0.66 -3.3 1.32 -5 2 C-5 2.66 -5 3.32 -5 4 C-6.65 4 -8.3 4 -10 4 C-9 1 -9 1 -6.6875 -0.25 C-3.90126985 -1.0275526 -2.66561622 -0.98726527 0 0 Z " fill="#FAA213" transform="translate(584,252)"/>
<path d="M0 0 C0.99 0.33 1.98 0.66 3 1 C2.74438677 3.3431213 2.40729228 5.67843403 2 8 C1.01 8.495 1.01 8.495 0 9 C-0.66 6.36 -1.32 3.72 -2 1 C-1.34 0.67 -0.68 0.34 0 0 Z " fill="#20354B" transform="translate(572,749)"/>
<path d="M0 0 C0 0.99 0 1.98 0 3 C0.66 3.33 1.32 3.66 2 4 C2 4.66 2 5.32 2 6 C0.02 6 -1.96 6 -4 6 C-2.84826645 3.53199953 -1.95216435 1.95216435 0 0 Z " fill="#2A394B" transform="translate(607,739)"/>
<path d="M0 0 C-0.33 2.64 -0.66 5.28 -1 8 C-1.33 8 -1.66 8 -2 8 C-2.33 6.35 -2.66 4.7 -3 3 C-3.33 4.65 -3.66 6.3 -4 8 C-4.33 8 -4.66 8 -5 8 C-5.1875 5.125 -5.1875 5.125 -5 2 C-2 0 -2 0 0 0 Z " fill="#132537" transform="translate(591,730)"/>
<path d="M0 0 C0 0.66 0 1.32 0 2 C-1.32 2 -2.64 2 -4 2 C-4 2.66 -4 3.32 -4 4 C-6.31 3.67 -8.62 3.34 -11 3 C-7.25667087 0.99464511 -4.26323685 0 0 0 Z " fill="#206DEB" transform="translate(601,353)"/>
<path d="M0 0 C0.66 0.33 1.32 0.66 2 1 C0.35 2.98 -1.3 4.96 -3 7 C-3.99 6.34 -4.98 5.68 -6 5 C-4.02 3.35 -2.04 1.7 0 0 Z " fill="#F7A316" transform="translate(566,259)"/>
<path d="M0 0 C-0.66 1.32 -1.32 2.64 -2 4 C-3.98 3.34 -5.96 2.68 -8 2 C-4.77208445 -0.1519437 -3.71599191 -0.20086443 0 0 Z " fill="#1C6EEC" transform="translate(618,349)"/>
<path d="M0 0 C1.65 1.65 3.3 3.3 5 5 C4.01 5.33 3.02 5.66 2 6 C0.68 4.35 -0.64 2.7 -2 1 C-1.34 0.67 -0.68 0.34 0 0 Z " fill="#3E586A" transform="translate(570,730)"/>
<path d="M0 0 C1 3 1 3 -0.4375 6.1875 C-1.2109375 7.5796875 -1.2109375 7.5796875 -2 9 C-3.45169732 6.09660535 -2.72348441 4.09125158 -2 1 C-1.34 0.67 -0.68 0.34 0 0 Z " fill="#0964FC" transform="translate(543,652)"/>
<path d="M0 0 C2.375 0.3125 2.375 0.3125 5 1 C5.66 1.99 6.32 2.98 7 4 C5 5 5 5 1.875 4.0625 C0.92625 3.711875 -0.0225 3.36125 -1 3 C-0.67 2.01 -0.34 1.02 0 0 Z " fill="#0E77FD" transform="translate(414,597)"/>
<path d="M0 0 C-1.12073862 0.83905565 -2.24674547 1.67107831 -3.375 2.5 C-4.00148438 2.9640625 -4.62796875 3.428125 -5.2734375 3.90625 C-7 5 -7 5 -9 5 C-9 4.01 -9 3.02 -9 2 C-3.375 -1.125 -3.375 -1.125 0 0 Z " fill="#1466F4" transform="translate(575,254)"/>
</svg>
